<?xml version="1.0" standalone="no"?>
<!DOCTYPE svg PUBLIC "-//W3C//DTD SVG 20010904//EN"
 "http://www.w3.org/TR/2001/REC-SVG-20010904/DTD/svg10.dtd">
<svg version="1.0" xmlns="http://www.w3.org/2000/svg"
 width="211.000000pt" height="211.000000pt" viewBox="0 0 211.000000 211.000000"
 preserveAspectRatio="xMidYMid meet">
<metadata>
Created by potrace 1.11, written by Peter Selinger 2001-2013
</metadata>
<g transform="translate(0.000000,211.000000) scale(0.100000,-0.100000)"
fill="#000000" stroke="none">
<path d="M957 2103 c-4 -3 -2 -12 5 -20 8 -10 8 -17 1 -24 -7 -7 -15 -4 -26
11 -18 26 -54 23 -98 -9 -29 -21 -30 -25 -14 -33 15 -9 14 -12 -13 -25 -18 -9
-32 -24 -34 -36 -2 -16 -9 -21 -24 -19 -15 2 -23 -4 -28 -20 -9 -35 -75 -101
-94 -93 -17 6 -32 -10 -32 -37 0 -11 5 -15 15 -12 8 4 15 1 15 -5 0 -5 -18
-15 -41 -21 -33 -9 -40 -15 -37 -32 4 -26 21 -33 39 -16 8 7 28 14 44 15 17 1
23 0 15 -3 -8 -4 -28 -12 -45 -19 -16 -7 -42 -17 -56 -23 -21 -8 -28 -19 -32
-49 -3 -21 -10 -60 -15 -88 -7 -35 -6 -64 3 -97 7 -27 8 -48 3 -48 -10 0 -2
-143 12 -190 5 -19 10 -49 10 -66 0 -36 28 -55 42 -30 12 21 138 60 152 46 16
-16 33 -12 39 11 7 26 32 20 32 -7 0 -15 -20 -26 -95 -52 -52 -19 -102 -35
-110 -35 -8 -1 -17 -5 -20 -8 -3 -3 -14 -11 -25 -17 -18 -10 -17 -11 10 -9 17
1 35 7 40 14 12 14 211 81 348 117 121 32 253 39 225 11 -3 -3 -79 -25 -169
-49 -230 -62 -471 -148 -456 -162 3 -3 20 2 39 12 67 35 300 107 541 169 136
34 251 66 255 70 4 4 -2 5 -13 2 -64 -19 -78 -20 -73 -6 3 8 22 15 47 17 41 3
49 22 9 22 -34 0 -14 10 49 25 33 8 62 10 67 5 5 -5 9 -33 9 -62 0 -29 4 -64
9 -77 6 -17 5 -27 -4 -33 -9 -5 -7 -8 8 -8 18 0 23 -7 26 -37 3 -21 0 -41 -6
-45 -15 -10 0 -22 19 -15 8 4 15 15 15 26 0 12 11 24 28 30 l27 11 -27 -5
c-26 -5 -28 -3 -28 25 0 20 5 30 15 30 8 0 15 -8 15 -17 0 -9 3 -14 6 -10 10
10 10 107 0 107 -4 0 -6 13 -4 30 5 35 -17 49 -26 17 -9 -34 -7 -67 4 -67 20
0 11 -48 -11 -53 -25 -7 -36 17 -18 39 11 14 9 19 -11 34 -22 17 -23 19 -7 25
19 8 24 59 7 70 -5 3 -10 11 -10 18 0 6 6 2 14 -9 14 -18 15 -18 21 -1 6 14
10 15 23 5 10 -9 8 0 -7 30 -12 23 -27 42 -34 42 -21 0 -40 17 -32 29 5 9 10
9 22 0 20 -18 35 7 28 46 -3 17 -6 39 -6 50 -1 45 -21 93 -38 89 -9 -3 -23 0
-31 6 -12 8 -13 12 -2 19 8 4 16 26 18 49 4 45 -24 92 -57 92 -12 0 -19 7 -19
18 0 10 -4 22 -9 27 -5 6 -11 21 -13 35 -2 19 -8 24 -26 23 -15 -2 -26 5 -33
20 -12 27 -49 54 -49 36 0 -6 16 -27 35 -46 19 -19 35 -39 35 -43 0 -4 9 -10
21 -13 12 -3 18 -10 14 -16 -3 -6 -1 -11 4 -11 6 0 11 -5 11 -11 0 -16 -57 22
-71 48 -7 13 -19 23 -26 23 -8 0 -12 4 -8 9 3 5 -5 18 -18 28 -13 10 -25 23
-27 28 -2 6 -10 16 -19 23 -15 12 -14 13 1 8 10 -3 20 -1 24 5 6 11 -66 6 -84
-5 -13 -8 -72 4 -72 15 0 12 44 11 56 -1 5 -5 15 -6 23 0 12 7 12 12 -3 34
-17 27 -31 33 -41 16 -7 -11 -54 -3 -69 11 -16 14 24 22 50 11 20 -10 24 -9
24 4 0 16 -43 37 -48 23 -5 -12 -39 -11 -47 1 -3 6 -15 10 -26 10 -26 0 -24
18 4 23 14 3 9 5 -14 6 -20 0 -39 -2 -42 -6z m-77 -43 c0 -5 -2 -10 -4 -10 -3
0 -8 5 -11 10 -3 6 -1 10 4 10 6 0 11 -4 11 -10z m27 -36 c-3 -3 -12 -4 -19
-1 -8 3 -5 6 6 6 11 1 17 -2 13 -5z m123 -9 c0 -8 -4 -15 -9 -15 -5 0 -11 7
-15 15 -3 9 0 15 9 15 8 0 15 -7 15 -15z m-64 -16 c3 -5 -6 -9 -20 -9 -24 0
-41 12 -30 23 7 7 43 -3 50 -14z m87 -47 c20 -16 34 -42 22 -42 -3 0 -14 9
-25 20 -12 12 -25 18 -30 15 -6 -4 -15 -3 -22 1 -10 6 6 18 30 23 2 1 14 -7
25 -17z m-218 -2 c3 -5 -1 -10 -10 -10 -9 0 -13 5 -10 10 3 6 8 10 10 10 2 0
7 -4 10 -10z m109 -15 c3 -9 0 -15 -9 -15 -16 0 -27 14 -18 24 10 10 21 7 27
-9z m247 -5 c41 -22 13 -32 -60 -21 -8 2 22 31 31 31 5 0 18 -5 29 -10z m-73
-46 c-3 -26 -12 -21 -23 13 -5 18 -3 22 9 17 9 -3 15 -16 14 -30z m-234 17 c3
-5 -1 -12 -10 -15 -20 -8 -29 -1 -19 13 8 13 22 14 29 2z m-80 -10 c6 -9 -16
-21 -40 -21 -20 0 -17 18 4 23 28 8 31 7 36 -2z m216 -6 c0 -8 -4 -15 -9 -15
-5 0 -11 7 -15 15 -3 9 0 15 9 15 8 0 15 -7 15 -15z m-286 -10 c4 -11 -2 -15
-21 -15 -21 0 -24 2 -13 15 7 8 16 15 20 15 4 0 10 -7 14 -15z m534 -15 c3 -9
-1 -11 -11 -7 -9 3 -30 2 -48 -3 -23 -7 -37 -6 -53 5 -20 15 -19 15 11 15 18
0 34 4 37 9 8 13 59 -2 64 -19z m-344 5 c3 -9 0 -15 -9 -15 -16 0 -27 14 -18
24 10 10 21 7 27 -9z m170 -14 c3 -5 -1 -11 -9 -15 -9 -3 -15 0 -15 9 0 16 16
20 24 6z m-83 -26 c1 -17 -18 -17 -25 0 -4 11 -1 15 10 13 8 -2 15 -7 15 -13z
m44 5 c3 -5 1 -10 -4 -10 -6 0 -11 5 -11 10 0 6 2 10 4 10 3 0 8 -4 11 -10z
m-300 -9 c10 -17 -12 -21 -25 -6 -10 12 -10 15 3 15 9 0 18 -4 22 -9z m65 5
c0 -2 -9 -6 -20 -9 -11 -3 -20 -1 -20 4 0 5 9 9 20 9 11 0 20 -2 20 -4z m-146
-22 c4 -11 1 -14 -11 -12 -9 2 -18 9 -21 16 -6 18 25 15 32 -4z m36 6 c0 -5
-4 -10 -10 -10 -5 0 -10 5 -10 10 0 6 5 10 10 10 6 0 10 -4 10 -10z m205 -18
c-4 -4 -20 -7 -37 -8 -16 -1 -26 2 -21 6 18 17 75 19 58 2z m305 2 c0 -8 -5
-12 -10 -9 -6 4 -17 2 -25 -5 -10 -8 -15 -8 -20 1 -4 6 -1 15 6 20 22 14 49
10 49 -7z m81 -6 c20 -25 25 -48 9 -48 -5 0 -10 7 -10 15 0 8 -10 23 -22 35
-13 11 -16 20 -9 20 7 0 21 -10 32 -22z m-170 -13 c0 -5 -7 -12 -16 -13 -23
-5 -47 6 -40 19 8 13 56 8 56 -6z m247 -12 c2 -8 -5 -13 -17 -13 -12 0 -21 6
-21 16 0 18 31 15 38 -3z m-332 -20 c-7 -7 -26 7 -26 19 0 6 6 6 15 -2 9 -7
13 -15 11 -17z m-296 7 c0 -5 -7 -10 -16 -10 -8 0 -12 5 -9 10 3 6 10 10 16
10 5 0 9 -4 9 -10z m170 -19 c0 -5 -7 -12 -16 -15 -24 -9 -28 -7 -14 9 14 17
30 20 30 6z m47 3 c-3 -3 -12 -4 -19 -1 -8 3 -5 6 6 6 11 1 17 -2 13 -5z m493
-19 c7 -8 9 -15 4 -15 -5 0 -19 -3 -31 -6 -19 -5 -23 -2 -23 15 0 25 31 29 50
6z m-264 -2 c12 -4 -17 -15 -82 -29 -111 -26 -120 -27 -110 -16 4 4 11 7 14 7
4 1 18 7 31 14 13 7 34 11 46 9 13 -3 34 1 46 8 28 16 32 16 55 7z m-391 -13
c3 -5 -1 -10 -9 -10 -9 0 -16 5 -16 10 0 6 4 10 9 10 6 0 13 -4 16 -10z m522
-17 c5 -13 5 -13 -147 -48 -197 -46 -394 -95 -399 -100 -8 -9 17 -5 76 10 148
39 482 114 501 112 25 -1 36 -21 19 -35 -7 -5 -86 -26 -177 -47 -252 -57 -563
-140 -642 -170 -14 -6 -18 -2 -18 19 0 15 7 29 15 32 14 6 14 8 -1 18 -21 16
-10 56 14 56 14 0 14 2 3 9 -20 13 -6 58 20 66 11 4 18 9 15 12 -10 10 21 31
63 44 28 8 45 9 52 2 6 -6 -9 -14 -46 -23 -30 -7 -55 -16 -55 -20 0 -4 30 1
68 12 79 22 157 28 190 14 22 -9 22 -11 5 -17 -43 -18 23 -6 197 35 180 41
238 46 247 19z m93 -108 c0 -8 -6 -16 -12 -18 -8 -4 -7 -6 3 -6 15 -1 29 -20
29 -41 0 -13 -59 -23 -145 -24 -70 -1 -89 -5 -155 -37 -90 -43 -182 -68 -188
-50 -2 6 -8 11 -14 11 -7 0 -7 -5 1 -13 18 -23 -85 -42 -128 -24 -19 8 -29 17
-24 20 14 9 434 113 571 142 18 4 31 9 29 12 -6 6 -212 -41 -462 -104 -128
-32 -198 -45 -241 -44 -62 2 -80 -6 -103 -46 -11 -21 -41 -10 -41 16 0 15 17
24 83 44 154 48 327 92 647 166 124 28 150 27 150 -4z m110 -108 c0 -20 -25 1
-28 24 -2 23 -2 23 13 5 8 -11 15 -24 15 -29z m-1010 23 c0 -5 -2 -10 -4 -10
-3 0 -8 5 -11 10 -3 6 -1 10 4 10 6 0 11 -4 11 -10z m933 -12 c2 -7 0 -21 -5
-32 -7 -13 -6 -21 2 -26 19 -11 7 -45 -15 -45 -23 0 -33 34 -13 46 10 7 10 9
-3 9 -9 0 -24 9 -34 20 -14 16 -15 20 -4 24 8 2 21 7 29 9 26 9 38 7 43 -5z
m-90 -35 c18 -9 28 -18 22 -19 -64 -19 -328 -74 -333 -70 -16 17 72 60 173 86
90 23 100 23 138 3z m37 -57 c0 -19 -7 -26 -32 -31 -57 -11 -280 -64 -366 -87
-87 -22 -108 -39 -23 -18 28 6 55 8 62 4 7 -4 9 -3 6 3 -6 9 350 100 357 92 2
-2 6 -13 10 -25 6 -19 -3 -23 -131 -52 -76 -17 -165 -34 -197 -38 -33 -3 -54
-9 -48 -13 7 -4 -23 -15 -66 -25 -42 -10 -84 -21 -92 -26 -9 -4 -31 -10 -50
-14 -33 -5 -34 -5 -7 5 28 11 36 34 15 42 -7 2 7 10 31 16 23 7 41 15 38 18
-3 3 -37 -4 -76 -16 -38 -11 -83 -21 -101 -21 -20 0 -29 -4 -24 -11 5 -8 1 -8
-14 0 -26 14 -72 14 -72 1 0 -5 12 -10 28 -11 25 -1 23 -2 -16 -21 -49 -22
-72 -18 -72 11 0 17 25 28 161 72 121 39 163 49 169 40 5 -9 9 -6 13 9 4 16 2
20 -11 16 -9 -3 -71 -21 -136 -41 -65 -20 -135 -42 -154 -50 -19 -8 -36 -15
-37 -15 -7 0 -14 32 -9 44 6 16 221 88 266 90 16 1 28 4 28 7 0 3 39 16 88 28
48 13 96 25 107 28 19 5 19 5 3 -14 -10 -11 -18 -25 -18 -31 0 -19 -63 -31
-79 -15 -7 8 -16 11 -19 8 -4 -3 0 -10 8 -15 10 -7 11 -10 3 -10 -7 0 -13 -4
-13 -9 0 -6 14 -5 35 0 19 6 40 7 45 4 5 -3 20 1 32 9 13 8 77 26 143 41 66
15 131 31 145 35 49 16 70 12 70 -14z m-611 -31 c12 -7 -77 -40 -220 -82 -20
-6 -34 26 -19 41 6 6 32 19 58 29 28 10 36 16 20 14 -15 -2 -25 -1 -22 4 6 10
166 5 183 -6z m681 -15 c0 -22 -5 -30 -18 -30 -24 0 -28 47 -4 53 9 3 18 5 20
6 1 0 2 -12 2 -29z m70 0 c0 -5 -4 -10 -9 -10 -6 0 -13 5 -16 10 -3 6 1 10 9
10 9 0 16 -4 16 -10z m-285 -121 c-4 -5 -13 -9 -22 -9 -13 0 -13 3 -3 15 13
15 35 11 25 -6z"/>
<path d="M825 1615 c-5 -2 -55 -15 -110 -30 -128 -34 -129 -34 -123 -41 6 -5
247 61 256 71 6 5 -7 6 -23 0z"/>
<path d="M655 1503 c-44 -14 -75 -27 -70 -29 6 -2 51 9 100 25 50 16 81 29 70
29 -11 0 -56 -11 -100 -25z"/>
<path d="M1395 1260 c3 -5 11 -10 16 -10 6 0 7 5 4 10 -3 6 -11 10 -16 10 -6
0 -7 -4 -4 -10z"/>
<path d="M1418 1233 c7 -3 16 -2 19 1 4 3 -2 6 -13 5 -11 0 -14 -3 -6 -6z"/>
<path d="M1398 1163 c7 -3 16 -2 19 1 4 3 -2 6 -13 5 -11 0 -14 -3 -6 -6z"/>
<path d="M1190 1120 c-85 -22 -164 -41 -175 -44 -26 -5 -75 -25 -75 -29 0 -4
422 102 428 108 10 10 -26 3 -178 -35z"/>
<path d="M1191 1055 c-215 -54 -450 -127 -550 -171 -29 -13 -58 -21 -65 -17
-8 4 -8 3 0 -6 8 -9 40 0 130 36 82 32 132 46 162 46 28 -1 42 3 42 11 0 15
55 31 354 105 144 36 193 52 155 50 -8 0 -110 -25 -228 -54z"/>
<path d="M895 1040 c-19 -8 -19 -9 2 -9 12 -1 25 4 28 9 7 12 -2 12 -30 0z"/>
<path d="M1237 1001 c-82 -20 -151 -33 -153 -29 -3 5 -13 4 -22 -1 -10 -5 -22
-5 -33 2 -21 13 -53 -8 -45 -30 3 -7 -1 -13 -9 -13 -37 0 -387 -131 -367 -138
6 -2 33 6 59 18 110 50 267 100 279 89 14 -12 38 -3 29 11 -5 8 147 53 323 94
57 13 106 27 109 30 12 11 -22 5 -170 -33z"/>
<path d="M725 985 c-163 -63 -165 -64 -165 -76 0 -9 3 -9 14 0 7 6 22 8 31 4
12 -4 16 -3 12 5 -7 10 77 46 201 87 28 9 52 18 52 21 0 11 -44 -2 -145 -41z"/>
<path d="M1561 1014 c0 -11 3 -14 6 -6 3 7 2 16 -1 19 -3 4 -6 -2 -5 -13z"/>
<path d="M1494 957 c4 -19 2 -27 -11 -30 -17 -4 -17 -4 1 -12 11 -5 21 -3 25
4 12 18 6 54 -9 59 -9 3 -11 -2 -6 -21z"/>
<path d="M1205 930 c-88 -22 -180 -47 -205 -55 -27 -9 -60 -12 -81 -9 -22 4
-39 2 -43 -5 -4 -6 -1 -11 6 -12 7 0 4 -4 -7 -9 -11 -4 -30 -6 -42 -3 -14 3
-22 -1 -25 -12 -2 -10 -39 -30 -97 -54 -62 -24 -95 -43 -97 -54 -1 -9 2 -17 7
-17 5 0 9 6 9 13 0 8 42 30 97 52 86 34 129 47 198 59 11 2 40 11 65 20 40 14
115 22 83 9 -21 -8 -15 -23 13 -33 20 -8 34 -6 58 6 31 16 180 58 246 69 19 3
40 11 45 17 7 7 4 8 -10 4 -191 -55 -332 -73 -332 -42 0 17 278 90 288 75 4
-7 9 -4 12 5 9 23 -5 21 -188 -24z"/>
<path d="M1462 863 c-7 -7 -9 -13 -3 -13 5 0 5 -12 -2 -30 -10 -27 -19 -31
-97 -49 -136 -32 -388 -106 -485 -144 -50 -19 -91 -31 -93 -26 -2 5 -8 9 -13
9 -4 0 -6 -6 -3 -14 3 -7 -2 -16 -10 -19 -12 -5 -16 0 -16 16 0 22 -1 21 -13
-2 -6 -14 -40 -41 -74 -61 -67 -38 -89 -55 -58 -44 20 7 20 7 1 -14 -11 -12
-14 -22 -9 -22 11 0 27 29 25 43 -1 4 9 7 23 7 14 0 25 -4 25 -9 0 -11 -67
-71 -80 -71 -6 0 -10 -15 -10 -33 0 -18 -7 -42 -16 -53 -14 -18 -15 -18 -4 4
6 12 7 22 3 22 -15 -1 -39 -67 -32 -86 7 -19 11 -14 13 16 2 22 36 25 36 3 0
-15 2 -16 10 -3 5 8 10 11 10 5 0 -15 -12 -29 -47 -53 -40 -28 -43 -28 -43 7
0 34 -19 45 -37 22 -18 -23 -16 -36 4 -20 14 12 16 12 11 -1 -3 -8 -1 -23 3
-32 7 -13 4 -20 -11 -28 -29 -15 -27 -43 3 -35 15 4 18 3 8 -3 -9 -7 -10 -12
-2 -16 16 -10 14 -23 -5 -30 -17 -7 -46 21 -40 39 2 6 -21 11 -54 13 -43 2
-60 -1 -71 -14 -12 -15 -9 -16 37 -10 42 6 51 5 51 -8 0 -8 -4 -13 -9 -10 -5
4 -20 -4 -33 -16 -27 -25 -82 -25 -77 0 3 12 1 13 -9 2 -7 -6 -24 -12 -39 -12
-20 0 -22 -2 -10 -10 8 -5 29 -10 46 -10 17 0 34 -3 38 -7 4 -4 15 -8 24 -8
65 -5 65 -5 53 -19 -12 -15 -31 -14 -106 5 -22 6 -53 13 -70 16 -16 3 -35 9
-41 14 -6 5 -26 4 -45 -1 -43 -13 -62 -13 -54 0 3 6 3 10 0 10 -8 0 -65 -56
-65 -63 0 -11 34 1 39 14 5 12 24 16 55 10 5 0 2 -8 -5 -17 -12 -15 -11 -16
11 -9 13 4 30 14 38 21 7 8 21 14 29 14 14 0 14 -3 -2 -20 -18 -20 -17 -20 8
-20 14 0 29 5 32 10 3 6 15 10 26 10 11 0 17 -5 14 -10 -4 -6 23 -10 74 -10
60 0 80 3 78 13 -1 8 10 12 33 12 23 0 34 -4 32 -13 -2 -10 2 -10 17 -2 22 11
64 13 75 3 4 -4 68 -8 144 -9 104 -1 145 2 169 13 18 8 31 19 28 23 -7 11 22
21 68 26 l38 4 -30 -26 c-17 -14 -35 -23 -40 -20 -5 3 -11 -1 -15 -9 -12 -32
102 -8 145 31 14 12 128 58 199 79 42 12 -52 -51 -133 -90 l-72 -34 77 -1 c69
0 77 2 72 18 -5 16 -5 16 9 0 18 -23 87 -24 128 -2 30 15 69 11 69 -7 0 -5 25
-9 56 -9 46 0 57 3 61 18 4 18 84 73 128 88 11 4 31 18 45 31 22 23 81 53 101
53 18 0 8 -32 -11 -37 -20 -5 -28 -23 -10 -23 6 0 10 -4 10 -9 0 -8 -56 -25
-72 -22 -5 0 -8 -3 -8 -9 0 -5 -6 -10 -12 -10 -7 0 -26 -7 -43 -16 -16 -9 -48
-21 -69 -28 -44 -13 -60 -36 -26 -36 12 0 49 11 83 24 100 40 157 52 168 35
16 -26 11 -48 -11 -42 -11 3 -20 0 -20 -6 0 -13 45 -15 69 -2 9 5 31 11 49 13
19 2 37 10 42 17 4 8 15 11 25 8 14 -6 75 16 75 27 0 6 -53 -1 -73 -9 -12 -5
-22 -2 -30 8 -17 22 -51 15 -55 -11 -3 -19 -13 -25 -39 -21 -5 1 -6 6 -4 12 2
7 4 17 4 23 0 16 110 40 115 25 2 -6 15 -11 28 -11 18 0 24 5 24 21 0 15 4 19
16 15 10 -4 14 -2 11 6 -2 7 -11 11 -18 10 -8 -2 -21 -6 -29 -8 -8 -2 -42 -10
-75 -18 -78 -20 -75 -20 -75 8 0 16 7 27 20 31 16 5 17 9 7 20 -9 9 -14 10
-19 1 -5 -8 -10 -8 -19 1 -10 10 -9 17 6 33 12 13 14 20 5 20 -6 0 -10 6 -7
14 6 15 -11 36 -30 36 -7 0 -10 -6 -7 -14 6 -16 -24 -36 -54 -36 -11 0 -45
-13 -76 -30 -31 -16 -72 -32 -91 -36 -20 -3 -38 -10 -41 -16 -3 -5 5 -6 18 -3
19 5 24 2 24 -15 0 -13 -5 -19 -13 -16 -7 3 -13 1 -13 -4 0 -6 -9 -10 -20 -10
-11 0 -34 -8 -52 -18 -35 -20 -128 -54 -128 -47 0 12 50 48 106 76 35 17 64
33 64 36 0 2 -6 1 -12 -2 -7 -4 1 5 17 19 28 24 123 76 139 76 4 0 16 9 28 20
12 11 29 20 37 20 21 0 47 17 39 25 -14 15 -228 -38 -228 -56 0 -5 -7 -9 -15
-9 -9 0 -41 -13 -73 -29 -75 -37 -242 -92 -284 -93 -39 -1 -71 -15 -63 -29 4
-5 -8 -9 -25 -9 -17 0 -41 -5 -53 -11 -12 -7 -19 -8 -15 -4 4 5 3 14 -2 20 -7
9 5 18 47 35 131 51 186 69 175 58 -23 -23 -11 -29 18 -8 16 11 53 32 82 46
29 14 44 22 33 19 -17 -4 -16 -2 5 15 14 11 30 20 36 20 20 0 75 32 81 47 4
10 14 13 29 9 13 -4 24 -2 24 3 0 5 16 12 35 15 34 7 45 19 26 30 -4 3 -6 18
-3 32 3 19 1 25 -7 20 -6 -4 -11 -18 -11 -31 0 -13 -8 -28 -17 -33 -24 -14
-49 15 -52 60 -2 41 12 56 34 38 19 -15 20 1 4 32 l-11 21 -13 -23 c-8 -15
-22 -24 -41 -25 -16 -1 -37 -5 -46 -9 -26 -12 -24 25 2 44 25 18 25 27 -1 41
-12 6 -19 7 -15 1 3 -5 -1 -13 -10 -16 -22 -8 -24 -8 -24 8 0 27 60 36 80 11
19 -23 43 -20 30 4 -7 14 -6 21 3 24 9 4 9 6 0 6 -7 1 -10 7 -7 15 3 8 1 17
-4 20 -6 3 -12 -1 -16 -9 -7 -19 -21 -19 -40 0 -8 9 -18 16 -21 15 -17 -1 -18
1 -5 10 9 5 19 5 27 -2 9 -7 13 -7 13 0 0 6 16 14 35 18 27 5 35 11 35 28 -1
18 -2 19 -13 5 -18 -24 -54 -30 -60 -10 -5 21 2 43 13 36 5 -3 11 -1 15 5 3 5
0 10 -9 10 -21 0 -5 54 18 58 14 3 17 -2 16 -25 -4 -51 -2 -56 15 -39 17 17
20 30 5 21 -6 -4 -10 7 -10 24 0 18 5 31 13 31 8 0 7 3 -3 10 -9 5 -19 5 -27
-2 -20 -16 -25 -5 -13 26 5 15 14 24 20 21 5 -3 10 -2 10 3 0 16 -35 20 -48 5z
m-29 -107 c-6 -29 -27 -39 -156 -71 -183 -46 -425 -128 -511 -172 -38 -20 -79
-24 -88 -9 -11 16 -10 23 6 29 10 4 12 0 9 -14 -4 -15 -2 -18 12 -13 10 4 15
14 12 25 -4 14 11 25 78 53 114 47 301 107 485 155 85 22 156 40 156 41 1 0
-1 -11 -3 -24z m-10 -77 c6 -23 -18 -38 -35 -21 -8 8 -17 8 -30 1 -25 -13 -23
-24 7 -37 28 -13 34 -32 10 -32 -8 0 -15 -4 -15 -10 0 -5 -9 -10 -21 -10 -13
0 -18 4 -13 12 4 7 3 8 -5 4 -6 -4 -9 -12 -6 -17 3 -5 0 -6 -8 -3 -15 5 -169
-36 -203 -54 -11 -6 -22 -10 -27 -10 -26 -1 -66 -15 -62 -22 2 -4 -23 -18 -58
-30 -34 -12 -96 -38 -137 -57 -69 -31 -76 -33 -87 -17 -7 9 -10 21 -7 26 23
37 476 200 505 182 8 -4 9 -3 5 4 -5 8 6 12 36 13 53 1 87 12 69 23 -6 4 -34
3 -60 -4 -27 -6 -55 -13 -62 -14 -8 -2 -21 -6 -29 -9 -8 -3 -72 -25 -142 -47
-70 -23 -154 -53 -185 -67 -32 -14 -77 -34 -101 -44 l-43 -19 3 31 c3 28 10
33 83 65 145 63 509 176 585 182 21 2 29 -3 33 -19z m-46 -143 c-8 -20 -14
-22 -216 -86 -90 -28 -216 -74 -279 -100 -84 -36 -119 -47 -128 -39 -21 18 -5
37 54 65 96 44 230 94 254 94 24 0 190 51 198 61 10 12 105 36 114 28 5 -4 6
-15 3 -23z m-20 -53 c1 -32 -17 -41 -165 -89 -142 -45 -279 -97 -353 -135 -28
-14 -39 -15 -48 -6 -10 9 -14 8 -21 -4 -5 -9 -24 -22 -42 -30 -18 -7 -38 -20
-44 -28 -7 -8 -25 -16 -40 -17 -41 -3 -41 -3 -24 -14 13 -8 12 -10 -4 -10 -10
0 -24 -7 -31 -17 -13 -17 -35 -10 -35 12 0 7 -14 18 -32 24 l-31 11 24 21 c13
12 25 16 27 10 2 -6 8 -8 13 -5 6 3 8 -6 5 -21 -7 -40 19 -43 54 -6 17 17 32
31 35 31 3 0 11 0 18 0 6 1 1 10 -13 21 -22 19 -25 19 -28 5 -2 -9 -8 -16 -13
-16 -6 0 -7 -5 -3 -11 4 -7 -1 -10 -12 -7 -11 2 -20 13 -22 26 -3 18 1 22 23
22 14 0 28 6 31 14 3 8 14 16 24 19 16 4 18 1 13 -24 -4 -21 -1 -30 11 -35 17
-7 49 19 38 31 -4 5 2 3 12 -2 20 -11 46 4 46 25 0 17 284 134 390 162 28 7
192 57 196 59 0 1 1 -7 1 -16z m26 -8 c-3 -9 -8 -14 -10 -11 -3 3 -2 9 2 15 9
16 15 13 8 -4z m117 -40 c0 -15 -6 -25 -14 -25 -8 0 -21 -3 -29 -6 -10 -3 -20
3 -27 16 -14 27 -1 40 43 40 22 0 27 -4 27 -25z m-800 1 c0 -8 -7 -16 -15 -20
-15 -5 -21 14 -8 27 11 12 23 8 23 -7z m-50 -7 c0 -19 -34 -69 -47 -69 -22 0
-16 51 7 57 11 3 20 9 20 14 0 5 5 9 10 9 6 0 10 -5 10 -11z m768 -23 c3 -12
-1 -17 -10 -14 -7 3 -15 13 -16 22 -3 12 1 17 10 14 7 -3 15 -13 16 -22z m-81
-2 c4 -10 -1 -21 -13 -27 -17 -10 -292 -105 -319 -111 -5 -1 -17 -6 -25 -11
-40 -26 -135 -65 -146 -61 -6 2 -21 -2 -33 -11 -12 -8 -29 -12 -38 -9 -14 6
-14 9 5 22 12 8 27 12 34 8 7 -5 9 -2 6 8 -5 11 12 23 65 47 40 18 81 37 91
43 39 21 324 115 354 117 7 1 15 -6 19 -15z m174 -23 c15 -13 17 -21 9 -26 -7
-4 -16 -1 -21 6 -8 12 -11 12 -22 -1 -17 -22 -137 -41 -137 -23 0 8 14 16 30
20 17 3 30 9 30 13 0 7 53 25 83 29 4 1 17 -8 28 -18z m-801 -13 c0 -7 -4 -19
-9 -26 -6 -10 -11 -10 -21 3 -12 14 -11 18 1 26 20 12 29 11 29 -3z m-70 -35
c0 -10 -4 -24 -9 -32 -8 -12 -12 -12 -25 -2 -28 23 -17 48 22 50 6 1 12 -7 12
-16z m676 2 c7 -22 -26 -42 -121 -73 -55 -19 -142 -52 -194 -73 -68 -29 -101
-38 -122 -34 -44 10 -26 29 59 65 113 48 345 130 361 127 8 -1 16 -6 17 -12z
m-593 -28 c7 -18 -3 -31 -25 -35 -21 -3 -22 2 -8 29 12 22 26 25 33 6z m647
-21 c0 -2 -16 -14 -36 -25 -22 -13 -34 -16 -32 -9 6 18 68 49 68 34z m-80 -23
c0 -18 -28 -53 -42 -53 -18 0 -313 -114 -316 -122 -2 -4 -14 -8 -26 -8 -12 0
-32 -7 -44 -16 -12 -8 -27 -12 -33 -8 -6 3 -15 1 -19 -6 -4 -6 -16 -10 -26 -8
-16 4 -15 7 9 16 15 6 27 16 27 22 0 6 4 8 10 5 5 -3 17 3 26 13 9 12 24 17
35 15 10 -3 27 -2 36 2 17 7 17 8 -1 14 -22 8 57 45 244 112 123 44 120 44
120 22z m337 1 c-3 -3 -12 -4 -19 -1 -8 3 -5 6 6 6 11 1 17 -2 13 -5z m-880
-111 c-3 -4 -27 -19 -53 -33 -27 -14 -60 -37 -74 -52 -24 -27 -60 -38 -60 -18
0 5 -11 12 -25 16 -35 9 -51 30 -35 49 16 19 30 19 30 1 0 -17 17 -31 49 -41
15 -5 21 -3 17 3 -8 14 136 104 148 92 4 -4 6 -12 3 -17z m698 17 c3 -5 1 -10
-4 -10 -6 0 -11 5 -11 10 0 6 2 10 4 10 3 0 8 -4 11 -10z m-590 -16 c14 -6 14
-8 -4 -20 -11 -8 -27 -11 -37 -7 -16 6 -16 7 2 20 21 15 18 15 39 7z m780 -4
c3 -5 1 -10 -4 -10 -6 0 -11 5 -11 10 0 6 2 10 4 10 3 0 8 -4 11 -10z m-299
-19 c-18 -20 -111 -57 -101 -41 5 8 103 60 114 60 2 0 -4 -9 -13 -19z m49 9
c3 -5 2 -10 -4 -10 -5 0 -13 5 -16 10 -3 6 -2 10 4 10 5 0 13 -4 16 -10z m225
0 c0 -5 -5 -10 -11 -10 -5 0 -7 5 -4 10 3 6 8 10 11 10 2 0 4 -4 4 -10z m-810
-20 c12 -7 8 -12 -20 -25 -19 -8 -44 -22 -55 -30 -12 -8 -26 -11 -33 -6 -10 6
0 17 35 39 55 35 53 35 73 22z m-366 -40 c-15 -16 -27 -19 -52 -14 -46 9 -23
34 31 34 l41 0 -20 -20z m56 -5 c10 -12 9 -16 -4 -21 -9 -3 -23 -3 -32 0 -13
5 -14 9 -4 21 16 19 24 19 40 0z m1435 -5 c3 -5 2 -10 -4 -10 -5 0 -13 5 -16
10 -3 6 -2 10 4 10 5 0 13 -4 16 -10z m-1245 -48 c-16 -6 -60 7 -60 17 0 17
45 18 58 2 8 -11 9 -17 2 -19z m604 22 c5 -14 4 -15 -9 -4 -17 14 -19 20 -6
20 5 0 12 -7 15 -16z m176 -4 c0 -5 -2 -10 -4 -10 -3 0 -8 5 -11 10 -3 6 -1
10 4 10 6 0 11 -4 11 -10z"/>
<path d="M1250 809 c-80 -21 -149 -38 -155 -37 -29 2 -57 -3 -51 -9 3 -4 -42
-23 -101 -44 -60 -20 -136 -48 -171 -62 -34 -14 -60 -21 -56 -16 3 5 0 17 -7
25 -6 8 -10 16 -8 19 7 6 240 92 273 101 21 5 27 4 22 -5 -5 -8 0 -8 19 -1 15
6 38 10 53 10 23 0 24 2 12 14 -24 23 -86 25 -77 4 3 -9 -10 -14 -42 -15 -25
-1 -47 -7 -49 -13 -2 -5 -8 -10 -13 -10 -6 0 -54 -16 -107 -37 -53 -20 -103
-36 -109 -36 -7 0 -13 -4 -13 -7 0 -4 -14 -13 -30 -20 -37 -15 -34 -25 3 -11
19 7 28 6 36 -3 9 -10 3 -21 -21 -46 -18 -18 -28 -30 -21 -26 6 3 14 2 18 -4
3 -5 -1 -10 -9 -10 -9 0 -16 -4 -16 -10 0 -22 40 -9 52 18 17 35 86 70 258
127 163 56 438 128 457 121 7 -3 13 -1 13 4 0 5 8 11 18 13 11 3 8 5 -8 5 -14
0 -90 -17 -170 -39z"/>
<path d="M1540 418 c0 -19 2 -20 10 -8 13 19 13 30 0 30 -5 0 -10 -10 -10 -22z"/>
<path d="M535 389 c-11 -17 1 -21 15 -4 8 9 8 15 2 15 -6 0 -14 -5 -17 -11z"/>
<path d="M1790 321 c0 -17 18 -21 24 -6 3 9 0 15 -9 15 -8 0 -15 -4 -15 -9z"/>
<path d="M1415 260 c-16 -7 -17 -9 -3 -9 9 -1 20 4 23 9 7 11 7 11 -20 0z"/>
<path d="M1867 244 c-3 -3 1 -13 9 -21 8 -9 18 -12 21 -9 4 4 0 13 -8 21 -8 9
-18 13 -22 9z"/>
<path d="M430 220 c0 -6 4 -9 9 -6 5 4 12 1 14 -4 3 -6 4 -5 3 2 -3 15 -26 23
-26 8z"/>
<path d="M1895 181 c-3 -6 4 -8 16 -6 30 6 37 15 11 15 -11 0 -23 -4 -27 -9z"/>
<path d="M2080 131 c0 -5 7 -11 15 -15 8 -3 15 -1 15 3 0 5 -7 11 -15 15 -8 3
-15 1 -15 -3z"/>
<path d="M2053 68 c-3 -6 1 -14 8 -19 11 -7 10 -9 -3 -9 -10 0 -18 5 -18 10 0
6 -7 10 -15 10 -8 0 -12 -6 -9 -14 4 -11 -7 -17 -38 -24 -41 -9 -38 -10 38
-11 84 -1 94 4 94 44 0 15 -48 26 -57 13z"/>
<path d="M1375 20 c-3 -5 -1 -10 4 -10 6 0 11 5 11 10 0 6 -2 10 -4 10 -3 0
-8 -4 -11 -10z"/>
<path d="M1678 13 c6 -2 18 -2 25 0 6 3 1 5 -13 5 -14 0 -19 -2 -12 -5z"/>
</g>
</svg>
