<svg id="Layer_1" data-name="Layer 1" xmlns="http://www.w3.org/2000/svg" viewBox="0 0 612 792"><defs><style>.cls-1{fill:#fff;}.cls-2{font-size:40px;font-family:SkolarPE-Bold, Skolar PE;font-weight:700;}.cls-2,.cls-6,.cls-7{fill:#222;}.cls-3{letter-spacing:-0.01em;}.cls-4{letter-spacing:0em;}.cls-5{letter-spacing:0.06em;}.cls-6{font-size:32px;font-family:SkolarPE-Italic, Skolar PE;font-style:italic;}.cls-7{font-size:14px;font-family:SkolarPE-Regular, Skolar PE;}.cls-8{letter-spacing:-0.03em;}.cls-9{letter-spacing:-0.07em;}.cls-10{letter-spacing:-0.07em;}.cls-11{letter-spacing:-0.01em;}.cls-12{letter-spacing:0em;}.cls-13{letter-spacing:-0.1em;}.cls-14{letter-spacing:-0.06em;}.cls-15{letter-spacing:-0.02em;}</style></defs><title>Artboard 6</title><rect class="cls-1" width="612" height="792"/><text class="cls-2" transform="translate(252.77 489.81)">Le<tspan class="cls-3" x="42.84" y="0">g</tspan><tspan class="cls-4" x="63.8" y="0">ends o</tspan><tspan class="cls-5" x="180.56" y="0">f</tspan><tspan x="199" y="0" xml:space="preserve"> the</tspan><tspan x="-27.04" y="46">Buddhist Saints</tspan></text><text class="cls-6" transform="translate(353.43 593.61)">Apadānapāli</text><text class="cls-7" transform="translate(421.96 636.5)">TR<tspan class="cls-8" x="16.37" y="0">A</tspan><tspan x="24.5" y="0">NSL</tspan><tspan class="cls-9" x="47.57" y="0">A</tspan><tspan x="55.08" y="0">TED </tspan><tspan class="cls-10" x="81.46" y="0">B</tspan><tspan class="cls-11" x="88.06" y="0">Y</tspan><tspan x="96.11" y="0" xml:space="preserve"> </tspan><tspan x="-41.31" y="16.8">JON</tspan><tspan class="cls-9" x="-19.25" y="16.8">A</tspan><tspan class="cls-12" x="-11.75" y="16.8">T</tspan><tspan class="cls-8" x="-4.02" y="16.8">HA</tspan><tspan x="13.09" y="16.8">N </tspan><tspan class="cls-8" x="25.21" y="16.8">S</tspan><tspan x="32.41" y="16.8">. </tspan><tspan class="cls-13" x="39.13" y="16.8">W</tspan><tspan class="cls-8" x="51.2" y="16.8">A</tspan><tspan class="cls-14" x="59.33" y="16.8">L</tspan><tspan x="65.45" y="16.8">TERS,</tspan><tspan class="cls-8" x="-53.87" y="33.6">W</tspan><tspan x="-40.82" y="33.6">HI</tspan><tspan class="cls-15" x="-26.89" y="33.6">T</tspan><tspan class="cls-12" x="-19.45" y="33.6">M</tspan><tspan class="cls-8" x="-8.16" y="33.6">A</tspan><tspan x="-0.03" y="33.6">N COLLEGE, 2017</tspan></text></svg>