<svg id="Layer_1" data-name="Layer 1" xmlns="http://www.w3.org/2000/svg" viewBox="0 0 612 792"><defs><style>.cls-1{fill:#222;}</style></defs><title>coverArtboard 6</title><path class="cls-1" d="M253.73,489.85a11.14,11.14,0,0,1-.32-2.8,18.1,18.1,0,0,0,3.48-.76,12,12,0,0,0,.2-2.44v-11.8c0-2.36-.08-4-.2-5.52a18,18,0,0,0-3.48-.76,11.14,11.14,0,0,1,.32-2.8c1.72,0,3.76.08,6.28.08s5.56,0,7.44-.08a10.58,10.58,0,0,1,.24,2.8,22.61,22.61,0,0,1-4.52.76c-.12,1.48-.16,3.16-.16,5.52v13.88h7.64q.84-2.88,1.44-5.88a8.19,8.19,0,0,1,3.56.28,86.4,86.4,0,0,1-.44,9l-.48.52c-2.48-.08-6.6-.08-9.4-.08H260C257.49,489.77,255.45,489.85,253.73,489.85Z"/><path class="cls-1" d="M286.09,490.37c-6.32,0-9-4.28-9-9.68,0-5.2,4-10.8,9.52-10.8,6.08,0,7.72,4.68,7.72,8a5.76,5.76,0,0,1-.36,2.2l-.48.48c-2.8,0-6.24-.08-9.12-.08h-1.44c.28,2.68,1.6,5.64,5,5.64a13.61,13.61,0,0,0,5.4-1.36,3.65,3.65,0,0,1,1,2.48A14.3,14.3,0,0,1,286.09,490.37ZM283,477.53h.84c2,0,3.76,0,4.72-.12,0-2.08-.52-3.8-2.72-3.8a2.25,2.25,0,0,0-1.52.6A8.31,8.31,0,0,0,283,477.53Z"/><path class="cls-1" d="M304.21,500.61c-6.52,0-8-3.36-8-5.48,0-2.52,2-4.28,4-5.4a2.49,2.49,0,0,1-.44-1.6c0-1.28.84-2.68,2.36-4.28a5.88,5.88,0,0,1-4.76-6.16c0-3.64,3-7.68,9-7.68a10.42,10.42,0,0,1,4.12.72,14.69,14.69,0,0,1,4.6-3.56,4.86,4.86,0,0,1,2.12,3.52,30.92,30.92,0,0,1-4.36,1.68,6.24,6.24,0,0,1,1.48,4.16c0,3.72-2.92,7.68-9.12,7.68a2.86,2.86,0,0,0-.36,1.32,1.2,1.2,0,0,0,.16.76,16.31,16.31,0,0,0,4.16.24c3.68,0,6.64,2.12,6.64,5.76C315.73,497.65,311.57,500.61,304.21,500.61Zm5.68-4.72a3.87,3.87,0,0,0,.8-2.56c0-1.32-1.28-2.28-4.56-2.28a17.86,17.86,0,0,1-3.68-.28,4.3,4.3,0,0,0-1.08,2.88c0,1.6,1.2,3.08,4.16,3.08A8.6,8.6,0,0,0,309.89,495.89Zm-4.12-15.24a3.83,3.83,0,0,0,1.92-.44,4.64,4.64,0,0,0,1.12-3,3.47,3.47,0,0,0-3.24-3.64,3.8,3.8,0,0,0-1.84.4,4,4,0,0,0-1,2.72C302.73,478.89,304,480.65,305.77,480.65Z"/><path class="cls-1" d="M326.81,490.37c-6.32,0-9-4.28-9-9.68,0-5.2,4-10.8,9.52-10.8,6.08,0,7.72,4.68,7.72,8a5.74,5.74,0,0,1-.36,2.2l-.48.48c-2.8,0-6.24-.08-9.12-.08h-1.44c.28,2.68,1.6,5.64,5,5.64a13.61,13.61,0,0,0,5.4-1.36,3.64,3.64,0,0,1,1,2.48A14.3,14.3,0,0,1,326.81,490.37Zm-3.12-12.84h.84c2,0,3.76,0,4.72-.12,0-2.08-.52-3.8-2.72-3.8a2.25,2.25,0,0,0-1.52.6A8.32,8.32,0,0,0,323.69,477.53Z"/><path class="cls-1" d="M350.89,489.85a15.24,15.24,0,0,1-.2-2.68,9.82,9.82,0,0,0,2-.68,14.74,14.74,0,0,0,.16-2.24v-5.8c0-2.6-.44-4.52-3.16-4.52a6.8,6.8,0,0,0-3.08,1v8.52c0,1.08,0,2,.12,3a9.66,9.66,0,0,1,2.68.72,12.52,12.52,0,0,1-.24,2.68c-1,0-3.72-.08-5.32-.08-2.8,0-4.56.08-6.08.08a11.41,11.41,0,0,1-.28-2.68,16,16,0,0,0,3.2-.68,14.74,14.74,0,0,0,.16-2.24v-9.8a17.68,17.68,0,0,0-3.16-.64,4.26,4.26,0,0,1-.16-2.44,27.31,27.31,0,0,1,7.36-1.44l.64.32a18.41,18.41,0,0,1,.68,1.88,9.68,9.68,0,0,1,6.12-2.24,6,6,0,0,1,6.28,6.24v7.32c0,1.08,0,2,.12,3a11.77,11.77,0,0,1,3,.72,10.23,10.23,0,0,1-.28,2.68c-1,0-4-.08-5.6-.08C353.57,489.77,352.17,489.85,350.89,489.85Z"/><path class="cls-1" d="M379.33,490.37c-1.2,0-2.28-1.32-2.88-3.16-1.76,1.92-3.72,3.16-6,3.16-4.76,0-7.12-4.36-7.12-9.8,0-6,4.24-10.56,8.64-10.56a11.07,11.07,0,0,1,4,.76v-7a25.52,25.52,0,0,0-3.4-.64,5,5,0,0,1-.16-2.44,30.28,30.28,0,0,1,9-1.48l.48.48c-.12,4-.16,7.12-.16,11.52v12.28c0,.76,0,1.88.08,2.76a17.06,17.06,0,0,0,2.56-.44,2.09,2.09,0,0,1,.8,1.72A8.72,8.72,0,0,1,379.33,490.37Zm-3.36-6.6v-9.4a9.66,9.66,0,0,0-3-.48c-1.16,0-2,.2-2.2.52a9,9,0,0,0-1.48,5.08c0,3.44,1.16,6.64,3,6.64C373.21,486.13,374.57,485.17,376,483.77Z"/><path class="cls-1" d="M393.81,490.25a19.8,19.8,0,0,1-7.24-1.16,23,23,0,0,1,.8-6.12,5.92,5.92,0,0,1,3.44,0,30.46,30.46,0,0,0,.36,3.44,8.1,8.1,0,0,0,2.76.44c2.32,0,2.68-.68,2.68-1.88s-1.16-1.88-2.92-2.52c-3.24-1.16-6.4-2.32-6.4-6.16,0-4.68,4.2-6.28,7.76-6.28a27.26,27.26,0,0,1,7,.76,21.39,21.39,0,0,1-.8,5.72,5.73,5.73,0,0,1-3.4-.08,12.75,12.75,0,0,0-.68-3,4.29,4.29,0,0,0-1.72-.28c-2.76,0-2.76,1-2.76,1.64,0,3.16,9.6,2.64,9.6,8.8C402.33,488.17,398.69,490.25,393.81,490.25Z"/><path class="cls-1" d="M422.21,490.37c-6.32,0-9.4-4.16-9.4-9.92,0-5,3.64-10.56,9.92-10.56,6.44,0,9.4,4.28,9.4,9.92C432.13,484.77,428.49,490.37,422.21,490.37Zm.6-3.88a2.91,2.91,0,0,0,2-.6,8.62,8.62,0,0,0,1.44-5.08c0-3-1.08-7-4.12-7a2.91,2.91,0,0,0-2,.6,8.62,8.62,0,0,0-1.44,5.08C418.69,482.41,419.77,486.49,422.81,486.49Z"/><path class="cls-1" d="M434.61,489.85a11.42,11.42,0,0,1-.28-2.68,16,16,0,0,0,3.2-.68,14.74,14.74,0,0,0,.16-2.24V474.09c-.72-.2-1.84-.36-2.84-.52a5.37,5.37,0,0,1-.2-2.64,13.15,13.15,0,0,1,3-.6v-.24c0-6.6,4.2-10.92,9.24-10.92a13.64,13.64,0,0,1,6.24,1.52A15.84,15.84,0,0,1,452,467a4.92,4.92,0,0,1-3.52-.16,35.64,35.64,0,0,0-.2-3.56,7.66,7.66,0,0,0-1.64-.2,2.58,2.58,0,0,0-2,.64c-.56.88-1.2,3.32-1.2,6.72l4.84,0a21.68,21.68,0,0,1-.16,3.64h-4.68v9.36c0,1.08,0,2,.12,3a23.83,23.83,0,0,1,4.72.72,12.51,12.51,0,0,1-.24,2.68c-2.2,0-4.36-.08-7.36-.08C437.89,489.77,436.25,489.85,434.61,489.85Z"/><path class="cls-1" d="M468.57,490.37c-3.44,0-5-2-5-5.76V474.09c-.72-.2-1.88-.36-2.88-.52a5.37,5.37,0,0,1-.2-2.64,15.17,15.17,0,0,1,3.16-.64l2.24-5.48a10.34,10.34,0,0,1,3.44.28v5.28l6.36.08a21.68,21.68,0,0,1-.16,3.64h-6.2v8.16c0,2.72.6,4.08,1.84,4.08a11.11,11.11,0,0,0,3.88-.76,3.34,3.34,0,0,1,.88,2.56A12.82,12.82,0,0,1,468.57,490.37Z"/><path class="cls-1" d="M490,489.85a15.24,15.24,0,0,1-.2-2.68,9.86,9.86,0,0,0,2-.68,14.87,14.87,0,0,0,.16-2.24v-5.8c0-2.64-.44-4.52-3.16-4.52a10.8,10.8,0,0,0-3.08.52v9c0,1.08,0,2,.12,3a9.31,9.31,0,0,1,2.68.72,12.51,12.51,0,0,1-.24,2.68c-1,0-3.72-.08-5.32-.08-2.8,0-4.56.08-6.08.08a11.43,11.43,0,0,1-.28-2.68,16,16,0,0,0,3.2-.68,14.87,14.87,0,0,0,.16-2.24V463.73a22.24,22.24,0,0,0-3.16-.64,5,5,0,0,1-.16-2.44,28.75,28.75,0,0,1,8.76-1.48l.48.48c-.12,4-.16,7.2-.16,11.56a13.52,13.52,0,0,1,5.72-1.32,6,6,0,0,1,6.28,6.24v7.32c0,1.08,0,2,.12,3a11.78,11.78,0,0,1,3,.72,10.15,10.15,0,0,1-.28,2.68c-1,0-4-.08-5.6-.08C492.64,489.77,491.25,489.85,490,489.85Z"/><path class="cls-1" d="M511.49,490.37c-6.32,0-9-4.28-9-9.68,0-5.2,4-10.8,9.52-10.8,6.08,0,7.72,4.68,7.72,8a5.74,5.74,0,0,1-.36,2.2l-.48.48c-2.8,0-6.24-.08-9.12-.08h-1.44c.28,2.68,1.6,5.64,5,5.64a13.61,13.61,0,0,0,5.4-1.36,3.64,3.64,0,0,1,1,2.48A14.3,14.3,0,0,1,511.49,490.37Zm-3.12-12.84h.84c2,0,3.76,0,4.72-.12,0-2.08-.52-3.8-2.72-3.8a2.25,2.25,0,0,0-1.52.6A8.32,8.32,0,0,0,508.37,477.53Z"/><path class="cls-1" d="M239.33,536c-2,0-3.76-.2-6.36-.2s-4.56.08-6.28.08a11.14,11.14,0,0,1-.32-2.8,18.1,18.1,0,0,0,3.48-.76,11.8,11.8,0,0,0,.2-2.44v-11.8c0-2.36-.08-4-.2-5.52a18,18,0,0,0-3.48-.76,11.14,11.14,0,0,1,.32-2.8c1.72,0,3.76.08,6.28.08,3.16,0,5.8-.2,7.92-.2,4.16,0,7.24,2.68,7.24,6.24a6.49,6.49,0,0,1-3.92,5.84c3.92,1,6,3.56,6,6.2C250.17,531.41,245.69,536,239.33,536ZM236,512.81V520h1.24c3.6,0,4.72-1.84,4.72-3.56,0-2.08-1.36-3.72-3.2-3.72C237.89,512.73,236.89,512.77,236,512.81Zm0,10.88V532h1.84c3.12,0,4.44-.36,4.8-.64a4.15,4.15,0,0,0,1.4-3.52c0-2.72-2.08-4.16-6-4.16Z"/><path class="cls-1" d="M269.37,536.37c-1.16,0-2.2-1.2-2.8-2.92a8.34,8.34,0,0,1-6.2,2.92c-3.64,0-6-2.24-6-6.56V520a12.85,12.85,0,0,0-3.12-.88,10.69,10.69,0,0,1,.28-2.68c1.56,0,3.28.08,6.2.08h2l.48.48c-.08,3.6-.08,8.2-.08,10.44,0,3.32.92,4.72,2.36,4.72,1.16,0,2.4-.92,3.56-2V520a11.8,11.8,0,0,0-2.92-.88,10.73,10.73,0,0,1,.28-2.68c1.52,0,3.2.08,6,.08h2l.48.48c-.08,3-.08,6.16-.08,10v2.48c0,.76,0,1.88.08,2.76a17.07,17.07,0,0,0,2.56-.44,2.09,2.09,0,0,1,.8,1.72A8.72,8.72,0,0,1,269.37,536.37Z"/><path class="cls-1" d="M292.81,536.37c-1.2,0-2.28-1.32-2.88-3.16-1.76,1.92-3.72,3.16-6,3.16-4.76,0-7.12-4.36-7.12-9.8,0-6,4.24-10.56,8.64-10.56a11.07,11.07,0,0,1,4,.76v-7a25.55,25.55,0,0,0-3.4-.64,5,5,0,0,1-.16-2.44,30.28,30.28,0,0,1,9-1.48l.48.48c-.12,4-.16,7.12-.16,11.52v12.28c0,.76,0,1.88.08,2.76a17.06,17.06,0,0,0,2.56-.44,2.09,2.09,0,0,1,.8,1.72A8.72,8.72,0,0,1,292.81,536.37Zm-3.36-6.6v-9.4a9.66,9.66,0,0,0-3-.48c-1.16,0-2,.2-2.2.52a9,9,0,0,0-1.48,5.08c0,3.44,1.16,6.64,3,6.64C286.69,532.13,288.05,531.17,289.45,529.77Z"/><path class="cls-1" d="M316.09,536.37c-1.2,0-2.28-1.32-2.88-3.16-1.76,1.92-3.72,3.16-6,3.16-4.76,0-7.12-4.36-7.12-9.8,0-6,4.24-10.56,8.64-10.56a11.07,11.07,0,0,1,4,.76v-7a25.55,25.55,0,0,0-3.4-.64,5,5,0,0,1-.16-2.44,30.28,30.28,0,0,1,9-1.48l.48.48c-.12,4-.16,7.12-.16,11.52v12.28c0,.76,0,1.88.08,2.76a17.06,17.06,0,0,0,2.56-.44,2.09,2.09,0,0,1,.8,1.72A8.72,8.72,0,0,1,316.09,536.37Zm-3.36-6.6v-9.4a9.66,9.66,0,0,0-3-.48c-1.16,0-2,.2-2.2.52a9,9,0,0,0-1.48,5.08c0,3.44,1.16,6.64,3,6.64C310,532.13,311.33,531.17,312.73,529.77Z"/><path class="cls-1" d="M336,535.85a15.24,15.24,0,0,1-.2-2.68,9.82,9.82,0,0,0,2-.68,14.74,14.74,0,0,0,.16-2.24v-5.8c0-2.64-.44-4.52-3.16-4.52a10.79,10.79,0,0,0-3.08.52v9c0,1.08,0,2,.12,3a9.27,9.27,0,0,1,2.68.72,12.58,12.58,0,0,1-.24,2.68c-1,0-3.72-.08-5.32-.08-2.8,0-4.56.08-6.08.08a11.41,11.41,0,0,1-.28-2.68,16,16,0,0,0,3.2-.68,14.74,14.74,0,0,0,.16-2.24V509.73a22.21,22.21,0,0,0-3.16-.64,5,5,0,0,1-.16-2.44,28.74,28.74,0,0,1,8.76-1.48l.48.48c-.12,4-.16,7.2-.16,11.56a13.51,13.51,0,0,1,5.72-1.32,6,6,0,0,1,6.28,6.24v7.32c0,1.08,0,2,.12,3a11.77,11.77,0,0,1,3,.72,10.23,10.23,0,0,1-.28,2.68c-1,0-4-.08-5.6-.08C338.65,535.77,337.25,535.85,336,535.85Z"/><path class="cls-1" d="M348.69,535.85a11.42,11.42,0,0,1-.28-2.68,16,16,0,0,0,3.2-.68,14.62,14.62,0,0,0,.16-2.24v-9.8a22.07,22.07,0,0,0-3.16-.64,5,5,0,0,1-.16-2.44,28.78,28.78,0,0,1,8.76-1.48l.48.48c-.12,4-.16,7.12-.16,11.52v1.56c0,1.08,0,2,.12,3a11.38,11.38,0,0,1,3,.72,12.51,12.51,0,0,1-.24,2.68c-1.08,0-4-.08-5.64-.08C352,535.77,350.21,535.85,348.69,535.85Zm2-25.16c0-1.84,1.68-4.2,3.72-4.2a3.14,3.14,0,0,1,3.24,2.92c0,2-1.68,4.16-3.76,4.16A3.21,3.21,0,0,1,350.65,510.69Z"/><path class="cls-1" d="M369.77,536.25a19.81,19.81,0,0,1-7.24-1.16,22.94,22.94,0,0,1,.8-6.12,5.92,5.92,0,0,1,3.44,0,30,30,0,0,0,.36,3.44,8.11,8.11,0,0,0,2.76.44c2.32,0,2.68-.68,2.68-1.88s-1.16-1.88-2.92-2.52c-3.24-1.16-6.4-2.32-6.4-6.16,0-4.68,4.2-6.28,7.76-6.28a27.25,27.25,0,0,1,7,.76,21.44,21.44,0,0,1-.8,5.72,5.74,5.74,0,0,1-3.4-.08,12.65,12.65,0,0,0-.68-3,4.3,4.3,0,0,0-1.72-.28c-2.76,0-2.76,1-2.76,1.64,0,3.16,9.6,2.64,9.6,8.8C378.29,534.17,374.65,536.25,369.77,536.25Z"/><path class="cls-1" d="M388,536.37c-3.44,0-5-2-5-5.76V520.09c-.72-.2-1.88-.36-2.88-.52a5.38,5.38,0,0,1-.2-2.64,15.16,15.16,0,0,1,3.16-.64l2.24-5.48a10.33,10.33,0,0,1,3.44.28v5.28l6.36.08a21.57,21.57,0,0,1-.16,3.64h-6.2v8.16c0,2.72.6,4.08,1.84,4.08a11.1,11.1,0,0,0,3.88-.76,3.34,3.34,0,0,1,.88,2.56A12.82,12.82,0,0,1,388,536.37Z"/><path class="cls-1" d="M414.33,536.41a22.26,22.26,0,0,1-9.68-2,34.91,34.91,0,0,1,1-7.68,5.72,5.72,0,0,1,3.56.2c.08,1.44.2,3,.44,4.68a10.8,10.8,0,0,0,4.28.76,6.84,6.84,0,0,0,3.12-.76,3.57,3.57,0,0,0,1-2.88c0-1.68-1.6-2.8-4.12-3.8l-3.08-1.24c-2.72-1.12-5.64-3-5.64-7.2,0-5.84,5.12-8.12,9.76-8.12a24.29,24.29,0,0,1,8.44,1.6,37.72,37.72,0,0,1-.64,6.8,4.82,4.82,0,0,1-3.48-.2,29.4,29.4,0,0,0-.48-3.76,11.69,11.69,0,0,0-4-.52,7,7,0,0,0-2.6.48,2.77,2.77,0,0,0-.92,2.28c0,1.84,2.2,2.8,4,3.6l3.28,1.48c2.8,1.24,5.68,3.2,5.68,7C424.21,532.29,420.45,536.41,414.33,536.41Z"/><path class="cls-1" d="M440.85,536.37c-1,0-2-1-2.68-2.52a10.18,10.18,0,0,1-5.92,2.52c-3.72,0-5.68-1.72-5.68-5,0-4.32,6.32-6.84,10.92-8-.12-2.36-.68-4-2.48-4a16.11,16.11,0,0,0-2.4.16,10.81,10.81,0,0,0-.32,3,5.21,5.21,0,0,1-3.52.48,8.31,8.31,0,0,1-1.32-4.8,18,18,0,0,1,8.8-2.28c2.56,0,7,.92,7,6.52v7c0,.76,0,1.88.08,2.76a17,17,0,0,0,2.56-.44,2.09,2.09,0,0,1,.8,1.72A8.72,8.72,0,0,1,440.85,536.37Zm-3.36-5.16V527a15.89,15.89,0,0,0-4.28.92,2.89,2.89,0,0,0-.76,2,2.28,2.28,0,0,0,2.44,2.32A5.3,5.3,0,0,0,437.49,531.21Z"/><path class="cls-1" d="M448.25,535.85a11.42,11.42,0,0,1-.28-2.68,16,16,0,0,0,3.2-.68,14.87,14.87,0,0,0,.16-2.24v-9.8a22.12,22.12,0,0,0-3.16-.64,5,5,0,0,1-.16-2.44,28.77,28.77,0,0,1,8.76-1.48l.48.48c-.12,4-.16,7.12-.16,11.52v1.56c0,1.08,0,2,.12,3a11.37,11.37,0,0,1,3,.72,12.51,12.51,0,0,1-.24,2.68c-1.08,0-4-.08-5.64-.08C451.53,535.77,449.77,535.85,448.25,535.85Zm2-25.16c0-1.84,1.68-4.2,3.72-4.2a3.14,3.14,0,0,1,3.24,2.92c0,2-1.68,4.16-3.76,4.16A3.21,3.21,0,0,1,450.21,510.69Z"/><path class="cls-1" d="M475.53,535.85a15.24,15.24,0,0,1-.2-2.68,9.82,9.82,0,0,0,2-.68,14.74,14.74,0,0,0,.16-2.24v-5.8c0-2.6-.44-4.52-3.16-4.52a6.8,6.8,0,0,0-3.08,1v8.52c0,1.08,0,2,.12,3a9.66,9.66,0,0,1,2.68.72,12.52,12.52,0,0,1-.24,2.68c-1,0-3.72-.08-5.32-.08-2.8,0-4.56.08-6.08.08a11.41,11.41,0,0,1-.28-2.68,16,16,0,0,0,3.2-.68,14.74,14.74,0,0,0,.16-2.24v-9.8a17.68,17.68,0,0,0-3.16-.64,4.26,4.26,0,0,1-.16-2.44,27.31,27.31,0,0,1,7.36-1.44l.64.32a18.41,18.41,0,0,1,.68,1.88,9.68,9.68,0,0,1,6.12-2.24,6,6,0,0,1,6.28,6.24v7.32c0,1.08,0,2,.12,3a11.77,11.77,0,0,1,3,.72,10.23,10.23,0,0,1-.28,2.68c-1,0-4-.08-5.6-.08C478.21,535.77,476.8,535.85,475.53,535.85Z"/><path class="cls-1" d="M495.41,536.37c-3.44,0-5-2-5-5.76V520.09c-.72-.2-1.88-.36-2.88-.52a5.37,5.37,0,0,1-.2-2.64,15.18,15.18,0,0,1,3.16-.64l2.24-5.48a10.34,10.34,0,0,1,3.44.28v5.28l6.36.08a21.58,21.58,0,0,1-.16,3.64h-6.2v8.16c0,2.72.6,4.08,1.84,4.08a11.11,11.11,0,0,0,3.88-.76,3.33,3.33,0,0,1,.88,2.56A12.82,12.82,0,0,1,495.41,536.37Z"/><path class="cls-1" d="M511.41,536.25a19.8,19.8,0,0,1-7.24-1.16A23,23,0,0,1,505,529a5.92,5.92,0,0,1,3.44,0,30.24,30.24,0,0,0,.36,3.44,8.11,8.11,0,0,0,2.76.44c2.32,0,2.68-.68,2.68-1.88s-1.16-1.88-2.92-2.52c-3.24-1.16-6.4-2.32-6.4-6.16,0-4.68,4.2-6.28,7.76-6.28a27.26,27.26,0,0,1,7,.76,21.44,21.44,0,0,1-.8,5.72,5.73,5.73,0,0,1-3.4-.08,12.65,12.65,0,0,0-.68-3,4.29,4.29,0,0,0-1.72-.28c-2.76,0-2.76,1-2.76,1.64,0,3.16,9.6,2.64,9.6,8.8C519.92,534.17,516.29,536.25,511.41,536.25Z"/><path class="cls-1" d="M351.86,593.64a4.92,4.92,0,0,1,0-1.54,12.08,12.08,0,0,0,2.46-.61l8.61-19a8.42,8.42,0,0,1,2.91-.45l4,19.49a7,7,0,0,1,2.14.61,4.19,4.19,0,0,1-.38,1.54c-.86-.06-2.72-.06-3.74-.06-1.38,0-2.62.06-3.94.06a4.15,4.15,0,0,1,0-1.54l2.91-.61-1-5c-1.6-.1-3.3-.13-4.7-.13h-2.14l-2.24,5.09,2.59.61a4.15,4.15,0,0,1-.38,1.54c-1-.06-2.72-.06-3.52-.06C354.29,593.58,353.14,593.64,351.86,593.64Zm7.94-9.18h5.57l-1.44-7.36.16-2.34h0Z"/><path class="cls-1" d="M373.59,601.74l-.26-.26c.67-3.65,1.15-7,1.6-10.4l1.34-10.46a13.37,13.37,0,0,0-2.75-.29,1.77,1.77,0,0,1,0-1.15,7.6,7.6,0,0,1,3.65-1c1.25,0,1.76.74,1.76,2a4.76,4.76,0,0,1-.06.7c1.92-1.73,4-2.82,5.63-2.82a2.7,2.7,0,0,1,2.72,2.21,14.26,14.26,0,0,1,.32,3.55c0,5.12-2.62,10.21-7.39,10.21a8.91,8.91,0,0,1-2.85-.54c-.29,2.46-.58,5-.8,7.49C376.43,601.54,375,601.86,373.59,601.74Zm8.83-10.14c1.25-1.09,2.4-3.74,2.4-6.88,0-2.3-.32-3.84-.93-4.45-1.54,0-3.36,1-5.25,2.37l-.8,6.37c-.06.61-.16,1.22-.22,1.86a6.35,6.35,0,0,0,3.33,1A4,4,0,0,0,382.42,591.59Z"/><path class="cls-1" d="M399.79,594c-.9,0-1.18-1.25-1.28-2.88-2,1.82-4,3-5.73,3a2.62,2.62,0,0,1-2.59-2.3,15.74,15.74,0,0,1-.35-3.49c0-5.15,2.59-10.27,7.26-10.27a14.43,14.43,0,0,1,5.57,1.22,16.09,16.09,0,0,0-.35,1.7L401,591.27a12.92,12.92,0,0,0,2.91-.9,1.7,1.7,0,0,1,.67,1.06C403.47,592.62,401.23,594,399.79,594Zm-1.28-4.48,1.12-8.64a7.81,7.81,0,0,0-3-.67,4.14,4.14,0,0,0-1.7.29c-1.22,1.09-2.34,3.74-2.34,6.91,0,2.27.32,3.84.9,4.42C394.93,591.82,396.69,590.82,398.51,589.51Z"/><path class="cls-1" d="M416.27,594c-.93,0-1.18-1.28-1.31-3-2,1.92-4.1,3.14-5.82,3.14a2.62,2.62,0,0,1-2.59-2.3,15.26,15.26,0,0,1-.35-3.46c0-5.12,2.59-10.21,7.26-10.21a13.93,13.93,0,0,1,2.94.35l.9-6.78a17.28,17.28,0,0,0-3.14-.29,1.77,1.77,0,0,1,0-1.15,9,9,0,0,1,4-1c1.25,0,1.82.74,1.82,2,0,.26,0,.51-.06.83l-2.5,19.17a12.9,12.9,0,0,0,2.91-.9,1.7,1.7,0,0,1,.67,1.06C420,592.62,417.71,594,416.27,594ZM415,589.42l1.09-8.38a8,8,0,0,0-3.14-.74,4.15,4.15,0,0,0-1.7.29c-1.22,1.09-2.34,3.71-2.34,6.85,0,2.27.32,3.81.9,4.38C411.35,591.82,413.14,590.79,415,589.42Z"/><path class="cls-1" d="M432.63,594c-.9,0-1.18-1.25-1.28-2.88-2,1.82-4,3-5.73,3a2.62,2.62,0,0,1-2.59-2.3,15.74,15.74,0,0,1-.35-3.49c0-5.15,2.59-10.27,7.26-10.27a14.42,14.42,0,0,1,5.57,1.22,15.84,15.84,0,0,0-.35,1.7l-1.34,10.3a12.89,12.89,0,0,0,2.91-.9,1.7,1.7,0,0,1,.67,1.06C436.3,592.62,434.07,594,432.63,594Zm-1.28-4.48,1.12-8.64a7.81,7.81,0,0,0-3-.67,4.14,4.14,0,0,0-1.7.29c-1.22,1.09-2.34,3.74-2.34,6.91,0,2.27.32,3.84.9,4.42C427.76,591.82,429.52,590.82,431.35,589.51ZM427,575.69a2.62,2.62,0,0,1-.26-1.12c0-.58.19-1,.61-1h7.9a2.09,2.09,0,0,1,.19.93c0,.61-.19,1.22-.58,1.22Z"/><path class="cls-1" d="M450,594c-1.18,0-1.63-.93-1.63-2a5.86,5.86,0,0,1,.1-1c.77-3.58,1.6-7.78,1.6-8.7s-.1-1.76-.67-2a12.47,12.47,0,0,0-5.41,2.43c-.42,3.26-.9,6.94-1.31,10.27-.06.58-1.47.9-2.85.77l-.26-.26c.7-3.65,1.25-7,1.66-10.4l.29-2.43a13.07,13.07,0,0,0-2.72-.29,1.77,1.77,0,0,1,0-1.15,7.6,7.6,0,0,1,3.65-1c1.25,0,1.82.74,1.82,2,0,.26,0,.48,0,.64,2.08-1.73,4.1-2.75,5.76-2.75,2,0,2.85,1.44,2.85,3.14a59,59,0,0,1-1.73,10.08,13.48,13.48,0,0,0,3-.9,1.7,1.7,0,0,1,.67,1.06C453.68,592.62,451.44,594,450,594Z"/><path class="cls-1" d="M466.29,594c-.9,0-1.18-1.25-1.28-2.88-2,1.82-4,3-5.73,3a2.62,2.62,0,0,1-2.59-2.3,15.74,15.74,0,0,1-.35-3.49c0-5.15,2.59-10.27,7.26-10.27a14.42,14.42,0,0,1,5.57,1.22,15.84,15.84,0,0,0-.35,1.7l-1.34,10.3a12.89,12.89,0,0,0,2.91-.9,1.7,1.7,0,0,1,.67,1.06C470,592.62,467.73,594,466.29,594ZM465,589.51l1.12-8.64a7.81,7.81,0,0,0-3-.67,4.14,4.14,0,0,0-1.7.29c-1.22,1.09-2.34,3.74-2.34,6.91,0,2.27.32,3.84.9,4.42C461.42,591.82,463.18,590.82,465,589.51Z"/><path class="cls-1" d="M472.5,601.74l-.26-.26c.67-3.65,1.15-7,1.6-10.4l1.34-10.46a13.37,13.37,0,0,0-2.75-.29,1.77,1.77,0,0,1,0-1.15,7.6,7.6,0,0,1,3.65-1c1.25,0,1.76.74,1.76,2a4.76,4.76,0,0,1-.06.7c1.92-1.73,4-2.82,5.63-2.82a2.7,2.7,0,0,1,2.72,2.21,14.26,14.26,0,0,1,.32,3.55c0,5.12-2.62,10.21-7.39,10.21a8.91,8.91,0,0,1-2.85-.54c-.29,2.46-.58,5-.8,7.49C475.34,601.54,473.87,601.86,472.5,601.74Zm8.83-10.14c1.25-1.09,2.4-3.74,2.4-6.88,0-2.3-.32-3.84-.93-4.45-1.54,0-3.36,1-5.25,2.37l-.8,6.37c-.06.61-.16,1.22-.22,1.86a6.35,6.35,0,0,0,3.33,1A4,4,0,0,0,481.33,591.59Z"/><path class="cls-1" d="M498.7,594c-.9,0-1.18-1.25-1.28-2.88-2,1.82-4,3-5.73,3a2.62,2.62,0,0,1-2.59-2.3,15.74,15.74,0,0,1-.35-3.49c0-5.15,2.59-10.27,7.26-10.27a14.43,14.43,0,0,1,5.57,1.22,16.09,16.09,0,0,0-.35,1.7l-1.34,10.3a12.92,12.92,0,0,0,2.91-.9,1.7,1.7,0,0,1,.67,1.06C502.38,592.62,500.14,594,498.7,594Zm-1.28-4.48,1.12-8.64a7.81,7.81,0,0,0-3-.67,4.14,4.14,0,0,0-1.7.29c-1.22,1.09-2.34,3.74-2.34,6.91,0,2.27.32,3.84.9,4.42C493.84,591.82,495.6,590.82,497.42,589.51ZM493,575.69a2.63,2.63,0,0,1-.26-1.12c0-.58.19-1,.61-1h7.9a2.09,2.09,0,0,1,.19.93c0,.61-.19,1.22-.58,1.22Z"/><path class="cls-1" d="M507.44,594c-1.28,0-1.7-.93-1.7-2a15.05,15.05,0,0,1,.16-1.63l2.56-18.65a13.37,13.37,0,0,0-2.75-.29,1.77,1.77,0,0,1,0-1.15,7.6,7.6,0,0,1,3.65-1c1.25,0,1.82.74,1.82,2,0,.26,0,.51-.06.83l-2.5,19.17a12.92,12.92,0,0,0,2.91-.9,1.7,1.7,0,0,1,.67,1.06C511.12,592.62,508.88,594,507.44,594Z"/><path class="cls-1" d="M516.59,594c-1.28,0-1.7-.93-1.7-2a10.32,10.32,0,0,1,.19-1.6c.42-2.62.7-4.7,1.34-9.79a13.07,13.07,0,0,0-2.72-.29,1.77,1.77,0,0,1,0-1.15,7.74,7.74,0,0,1,3.81-1,1.56,1.56,0,0,1,1.73,1.79,6.89,6.89,0,0,1-.06,1l-1.44,10.3a13.18,13.18,0,0,0,2.94-.9,1.7,1.7,0,0,1,.67,1.06C520.27,592.62,518,594,516.59,594Zm-.42-20.06a2.52,2.52,0,0,1,2.21-2.5,1.87,1.87,0,0,1,1.89,1.76,2.49,2.49,0,0,1-2.18,2.46A2,2,0,0,1,516.18,573.93Z"/><path class="cls-1" d="M424.14,636.51a1.62,1.62,0,0,1-.13-.67,9.49,9.49,0,0,0,1.5-.27,4.26,4.26,0,0,0,.07-.86V628h-2.31a10.15,10.15,0,0,0-.22,1.71,1,1,0,0,1-.74,0,15,15,0,0,1-.13-2.52l.11-.11c.87,0,2.31,0,3.29,0h1.23c1,0,2.42,0,3.29,0l.11.11a15.15,15.15,0,0,1-.13,2.52,1.12,1.12,0,0,1-.74,0,10,10,0,0,0-.22-1.71h-2.31v6.39a10.3,10.3,0,0,0,.06,1.16,6.81,6.81,0,0,1,1.42.27,1.54,1.54,0,0,1-.1.67c-.46,0-1.47,0-2,0Z"/><path class="cls-1" d="M431.14,636.51a2,2,0,0,1-.1-.63,5.18,5.18,0,0,0,1-.2,3.45,3.45,0,0,0,.07-.85v-3a12,12,0,0,0-.07-1.41,5.18,5.18,0,0,0-1-.2,2,2,0,0,1,.1-.63c.5,0,1,0,1.57,0,.8,0,1.61-.06,2.19-.06,1.61,0,2.21.87,2.21,1.72a2.5,2.5,0,0,1-1.48,2.09l1.29,2.35a4.9,4.9,0,0,1,1,.2,2.24,2.24,0,0,1-.07.63H436l-1.6-2.89a9.89,9.89,0,0,1-1.05-.07v1.29a5.59,5.59,0,0,0,.06.85,4.66,4.66,0,0,1,.94.2,1.89,1.89,0,0,1-.07.63c-.36,0-1.08,0-1.53,0S431.65,636.51,431.14,636.51Zm4.22-4a1.18,1.18,0,0,0,.49-1,1.2,1.2,0,0,0-1.3-1.2l-1.23,0v2.34c.29,0,.59,0,.88,0A3.33,3.33,0,0,0,435.36,632.55Z"/><path class="cls-1" d="M438.76,636.51a2,2,0,0,1-.1-.63,4.66,4.66,0,0,0,1-.2l2.37-6a4,4,0,0,1,1.16-.15l2.48,6.18a4,4,0,0,1,.87.2,1.59,1.59,0,0,1-.07.63c-.35,0-1.06,0-1.51,0l-1.58,0a2,2,0,0,1-.1-.63l1.09-.18-.56-1.34c-.62,0-1.28-.06-1.84-.06h-.84l-.55,1.4,1,.18a2.37,2.37,0,0,1-.07.63c-.38,0-1.05,0-1.39,0Zm2.61-3h2.07l-.86-2.06-.06-.9h0Z"/><path class="cls-1" d="M452.86,636.56l-3.46-5-.31-1h0v4.29a8.5,8.5,0,0,0,0,.85,4.63,4.63,0,0,1,1,.2,2.37,2.37,0,0,1-.07.63c-.38,0-1.05,0-1.4,0l-1.43,0a2,2,0,0,1-.1-.63,5.18,5.18,0,0,0,1-.2,2.23,2.23,0,0,0,.07-.62v-3.28a12,12,0,0,0-.07-1.41,5.18,5.18,0,0,0-1-.2,2,2,0,0,1,.1-.63l1.46,0a8.67,8.67,0,0,1,1.08,0l3.21,4.68.31,1h0v-3.53a13.23,13.23,0,0,0-.06-1.41,5.19,5.19,0,0,0-1-.2,2,2,0,0,1,.1-.63l1.44,0c.34,0,1,0,1.37,0a2.26,2.26,0,0,1,.07.63,4.57,4.57,0,0,1-1,.2c0,.38,0,.81,0,1.41v4.59A6.37,6.37,0,0,1,452.86,636.56Z"/><path class="cls-1" d="M459,636.65a6.37,6.37,0,0,1-2.62-.48,8,8,0,0,1,.28-1.88,1.16,1.16,0,0,1,.76.06,6.91,6.91,0,0,0,.15,1.23,4.73,4.73,0,0,0,1.47.2,2.4,2.4,0,0,0,1.06-.24,1.06,1.06,0,0,0,.36-.91c0-.5-.55-.84-1.18-1.06l-.85-.31c-.84-.31-1.89-.77-1.89-1.83,0-1.47,1.46-2,2.69-2a7.44,7.44,0,0,1,2.3.38,6.22,6.22,0,0,1-.24,1.65,1.05,1.05,0,0,1-.73,0,7.58,7.58,0,0,0-.17-1,5,5,0,0,0-1.27-.14,3.14,3.14,0,0,0-1,.15.78.78,0,0,0-.31.67c0,.56.64.87,1.19,1.06l1,.35c.87.31,1.76.81,1.76,1.79A2.43,2.43,0,0,1,459,636.65Z"/><path class="cls-1" d="M463.2,636.51a2,2,0,0,1-.1-.63,5.19,5.19,0,0,0,1-.2,2.27,2.27,0,0,0,.07-.62v-3.28a12.48,12.48,0,0,0-.07-1.41,5.19,5.19,0,0,0-1-.2,2,2,0,0,1,.1-.63l1.65,0c.5,0,1.3,0,1.7,0a1.58,1.58,0,0,1,.08.63,5.84,5.84,0,0,1-1.21.2,12.94,12.94,0,0,0-.06,1.41v3.89H468a10.09,10.09,0,0,0,.42-1.46,1.69,1.69,0,0,1,.74.06,16.21,16.21,0,0,1-.11,2.12l-.11.11c-.74,0-1.93,0-2.76,0h-1.39C464.2,636.49,463.71,636.51,463.2,636.51Z"/><path class="cls-1" d="M470,636.51a2,2,0,0,1-.1-.63,4.66,4.66,0,0,0,1-.2l2.37-6a4,4,0,0,1,1.16-.15l2.48,6.18a4,4,0,0,1,.87.2,1.57,1.57,0,0,1-.07.63c-.35,0-1.06,0-1.51,0l-1.58,0a2,2,0,0,1-.1-.63l1.09-.18-.56-1.34c-.62,0-1.28-.06-1.83-.06h-.84l-.55,1.4,1,.18a2.33,2.33,0,0,1-.07.63c-.38,0-1.05,0-1.39,0Zm2.61-3h2.07l-.85-2.06-.06-.9h0Z"/><path class="cls-1" d="M479.08,636.51a1.64,1.64,0,0,1-.1-.63,8.38,8.38,0,0,0,1.28-.2,3.09,3.09,0,0,0,.06-.63v-4.68H478.5a8.36,8.36,0,0,0-.18,1.32,1.38,1.38,0,0,1-.76,0,12.67,12.67,0,0,1-.11-2l.11-.11c.71,0,1.93,0,2.76,0h1.15c.83,0,2,0,2.76,0l.11.11a11.34,11.34,0,0,1-.13,2,1.33,1.33,0,0,1-.74,0,8.24,8.24,0,0,0-.18-1.32H481.5v4.45a8.22,8.22,0,0,0,0,.85,7,7,0,0,1,1.2.2,1.59,1.59,0,0,1-.07.63c-.43,0-1.26,0-1.79,0Z"/><path class="cls-1" d="M485.46,636.51a2,2,0,0,1-.1-.63,5.19,5.19,0,0,0,1-.2,2.27,2.27,0,0,0,.07-.62v-3.28a12.48,12.48,0,0,0-.07-1.41,5.19,5.19,0,0,0-1-.2,2,2,0,0,1,.1-.63c.5,0,1,0,1.58,0h1.25c.81,0,2,0,2.75,0l.11.11a12.63,12.63,0,0,1-.11,1.85,1.38,1.38,0,0,1-.76,0,6.22,6.22,0,0,0-.18-1.13h-2.47v2.17l2.3,0,.11.11a3.45,3.45,0,0,1-.11.71l-2.3,0v2.38h2.61a10.29,10.29,0,0,0,.42-1.27,1.67,1.67,0,0,1,.74.06,13.87,13.87,0,0,1-.13,1.93l-.11.11c-.71,0-1.92,0-2.75,0H487C486.46,636.49,486,636.51,485.46,636.51Z"/><path class="cls-1" d="M496.17,636.54c-.5,0-1.08-.06-1.79-.06s-1.06,0-1.57,0a2,2,0,0,1-.1-.63,5.18,5.18,0,0,0,1-.2,2.23,2.23,0,0,0,.07-.62v-3.28a12.25,12.25,0,0,0-.07-1.41,5.18,5.18,0,0,0-1-.2,2,2,0,0,1,.1-.63c.5,0,1,0,1.57,0,.8,0,1.51-.06,2.13-.06a3.1,3.1,0,0,1,3.22,3.42A3.53,3.53,0,0,1,496.17,636.54ZM495,630.38v5.32h1a3.88,3.88,0,0,0,1.51-.28,2.33,2.33,0,0,0,1-2.06c0-1.49-.73-3-2.38-3Z"/><path class="cls-1" d="M507.49,636.54c-.57,0-1.09-.06-1.79-.06s-1.06,0-1.57,0a2,2,0,0,1-.1-.63,5.19,5.19,0,0,0,1-.2,3.56,3.56,0,0,0,.07-.87v-3a12.76,12.76,0,0,0-.07-1.43,5.19,5.19,0,0,0-1-.2,2,2,0,0,1,.1-.63c.5,0,1,0,1.57,0,.84,0,1.55-.06,2.13-.06a1.74,1.74,0,0,1,1.93,1.6,1.58,1.58,0,0,1-1.13,1.51c1.15.24,1.72.9,1.72,1.6C510.34,635.34,509.41,636.54,507.49,636.54Zm-1.19-6.16v2.09H507c1.05,0,1.47-.52,1.47-1a1.12,1.12,0,0,0-1.18-1.09Zm0,2.88v2.44h1a3.18,3.18,0,0,0,1.36-.2,1.21,1.21,0,0,0,.48-1c0-.71-.73-1.21-1.75-1.21Z"/><path class="cls-1" d="M512.33,636.51a1.66,1.66,0,0,1-.11-.63,8,8,0,0,0,1.29-.2,3.09,3.09,0,0,0,.06-.63v-.92l-2.27-3.75a7.48,7.48,0,0,0-.94-.2,2,2,0,0,1,.08-.63c.52,0,1,0,1.64,0s1.21,0,1.58,0a1.88,1.88,0,0,1,.05.63l-1,.18,1.63,2.62,1.63-2.62-1.06-.18a2.4,2.4,0,0,1,.08-.63l1.41,0c.35,0,1,0,1.35,0a1.87,1.87,0,0,1,.07.63,4,4,0,0,1-.87.2l-2.2,3.57v.88a5.47,5.47,0,0,0,.06.85,6.17,6.17,0,0,1,1.2.2,1.9,1.9,0,0,1-.08.63c-.42,0-1.26,0-1.78,0C513.48,636.49,512.9,636.51,512.33,636.51Z"/><path class="cls-1" d="M380.27,656.31a1,1,0,0,1-.24-.71,2.81,2.81,0,0,0,2.17-3v-5.87c0-.83,0-1.42-.07-1.93a6.27,6.27,0,0,0-1.22-.27,1.89,1.89,0,0,1,.11-.67l1.78,0c.46,0,1.33,0,1.74,0a1.78,1.78,0,0,1,.08.67,4.54,4.54,0,0,1-1.13.27c0,.52-.06,1.11-.06,1.93v6.15C383.43,655.16,382.2,656.1,380.27,656.31Z"/><path class="cls-1" d="M389.12,653.5a3.28,3.28,0,0,1-3.43-3.54,3.74,3.74,0,0,1,3.64-3.78,3.29,3.29,0,0,1,3.45,3.54A3.75,3.75,0,0,1,389.12,653.5Zm.32-.92a2.51,2.51,0,0,0,1.22-.34,2.81,2.81,0,0,0,.87-2.1c0-1.6-.73-3-2.52-3a2.5,2.5,0,0,0-1.21.34,2.75,2.75,0,0,0-.87,2.09C386.93,651.13,387.66,652.57,389.44,652.57Z"/><path class="cls-1" d="M399.93,653.36l-3.46-5-.31-1h0v4.29a8.21,8.21,0,0,0,0,.85,4.58,4.58,0,0,1,1,.2,2.33,2.33,0,0,1-.07.63c-.38,0-1,0-1.4,0l-1.43,0a2,2,0,0,1-.1-.63,5.19,5.19,0,0,0,1-.2,2.27,2.27,0,0,0,.07-.62v-3.28a12.47,12.47,0,0,0-.07-1.42,5,5,0,0,0-1-.2,2,2,0,0,1,.1-.63l1.46,0a8.69,8.69,0,0,1,1.08,0L400,651.1l.31,1h0v-3.53a12.7,12.7,0,0,0-.06-1.42,5,5,0,0,0-1-.2,2,2,0,0,1,.1-.63l1.44,0c.34,0,1,0,1.37,0a2.31,2.31,0,0,1,.07.63,4.6,4.6,0,0,1-1,.2c0,.38,0,.81,0,1.42v4.59A6.27,6.27,0,0,1,399.93,653.36Z"/><path class="cls-1" d="M403.14,653.31a2,2,0,0,1-.1-.63,4.66,4.66,0,0,0,1-.2l2.37-6a4,4,0,0,1,1.16-.15l2.48,6.18a4,4,0,0,1,.87.2,1.57,1.57,0,0,1-.07.63c-.35,0-1.06,0-1.51,0l-1.58,0a2,2,0,0,1-.1-.63l1.09-.18-.56-1.34c-.62,0-1.28-.06-1.83-.06h-.84l-.55,1.4,1,.18a2.33,2.33,0,0,1-.07.63c-.38,0-1.05,0-1.39,0Zm2.61-3h2.07L407,648.3l-.06-.9h0Z"/><path class="cls-1" d="M412.26,653.31a1.64,1.64,0,0,1-.1-.63,8.38,8.38,0,0,0,1.28-.2,3.09,3.09,0,0,0,.06-.63v-4.68h-1.81a8.34,8.34,0,0,0-.18,1.32,1.38,1.38,0,0,1-.76,0,12.67,12.67,0,0,1-.11-2l.11-.11c.71,0,1.93,0,2.76,0h1.15c.83,0,2,0,2.76,0l.11.11a11.34,11.34,0,0,1-.13,2,1.33,1.33,0,0,1-.74,0,8.23,8.23,0,0,0-.18-1.32h-1.79v4.45a8.21,8.21,0,0,0,0,.85,7,7,0,0,1,1.2.2,1.59,1.59,0,0,1-.07.63c-.43,0-1.26,0-1.79,0Z"/><path class="cls-1" d="M423.5,653.31a2,2,0,0,1-.1-.63,5.2,5.2,0,0,0,1-.2,2.27,2.27,0,0,0,.07-.62v-1.74c-.78,0-1.58-.06-2.34-.06h-1.33v1.57a5.4,5.4,0,0,0,.06.84,4.66,4.66,0,0,1,.94.2,2.37,2.37,0,0,1-.07.63c-.36,0-1.08,0-1.53,0s-1.06,0-1.57,0a2,2,0,0,1-.1-.63,5.19,5.19,0,0,0,1-.2,2.27,2.27,0,0,0,.07-.62v-3.28a12.47,12.47,0,0,0-.07-1.42,5,5,0,0,0-1-.2,2,2,0,0,1,.1-.63c.5,0,1,0,1.57,0s1.16,0,1.53,0a2.31,2.31,0,0,1,.07.63,4.66,4.66,0,0,1-.94.2,12.78,12.78,0,0,0-.06,1.42v.7h3.67v-.7a12.28,12.28,0,0,0-.07-1.42,5.06,5.06,0,0,0-1-.2,2,2,0,0,1,.1-.63c.5,0,1,0,1.57,0s1.16,0,1.53,0a2.27,2.27,0,0,1,.07.63,4.63,4.63,0,0,1-.94.2,12.82,12.82,0,0,0-.06,1.42v3.05a5.4,5.4,0,0,0,.06.84,4.63,4.63,0,0,1,.94.2,2.33,2.33,0,0,1-.07.63c-.36,0-1.08,0-1.53,0S424,653.31,423.5,653.31Z"/><path class="cls-1" d="M427.35,653.31a2,2,0,0,1-.1-.63,4.65,4.65,0,0,0,1-.2l2.37-6a4,4,0,0,1,1.16-.15l2.48,6.18a4,4,0,0,1,.87.2,1.59,1.59,0,0,1-.07.63c-.35,0-1.06,0-1.51,0l-1.58,0a2,2,0,0,1-.1-.63l1.09-.18-.56-1.34c-.62,0-1.27-.06-1.83-.06h-.84l-.55,1.4,1,.18a2.37,2.37,0,0,1-.07.63c-.38,0-1,0-1.39,0Zm2.61-3H432l-.85-2.06-.06-.9h0Z"/><path class="cls-1" d="M441.45,653.36l-3.46-5-.31-1h0v4.29a8.21,8.21,0,0,0,0,.85,4.58,4.58,0,0,1,1,.2,2.33,2.33,0,0,1-.07.63c-.38,0-1,0-1.4,0l-1.43,0a2,2,0,0,1-.1-.63,5.19,5.19,0,0,0,1-.2,2.27,2.27,0,0,0,.07-.62v-3.28a12.47,12.47,0,0,0-.07-1.42,5,5,0,0,0-1-.2,2,2,0,0,1,.1-.63l1.46,0a8.69,8.69,0,0,1,1.08,0l3.21,4.68.31,1h0v-3.53a12.7,12.7,0,0,0-.06-1.42,5,5,0,0,0-1-.2,2,2,0,0,1,.1-.63l1.44,0c.34,0,1,0,1.37,0a2.31,2.31,0,0,1,.07.63,4.6,4.6,0,0,1-1,.2c0,.38,0,.81,0,1.42v4.59A6.27,6.27,0,0,1,441.45,653.36Z"/><path class="cls-1" d="M450.93,653.51a7,7,0,0,1-3.08-.62,11.56,11.56,0,0,1,.34-2.41,1.21,1.21,0,0,1,.74.06,13.45,13.45,0,0,0,.2,1.71,5.88,5.88,0,0,0,1.89.25,2.71,2.71,0,0,0,1.34-.35,1.87,1.87,0,0,0,.48-1.43c0-.73-.69-1.26-1.4-1.53l-1-.39c-1-.39-2.38-1-2.38-2.44,0-2,1.74-2.66,3.17-2.66a8.09,8.09,0,0,1,2.7.49,8.45,8.45,0,0,1-.31,2.13,1,1,0,0,1-.73-.06,8.73,8.73,0,0,0-.21-1.37,6.3,6.3,0,0,0-1.61-.18,3.38,3.38,0,0,0-1.33.22,1.23,1.23,0,0,0-.41,1c0,.83.8,1.34,1.46,1.58l1.2.43c1.05.38,2.17,1.09,2.17,2.41A3,3,0,0,1,450.93,653.51Z"/><path class="cls-1" d="M456.26,651.65a.91.91,0,0,1,1,.9,1,1,0,0,1-1.93,0A.91.91,0,0,1,456.26,651.65Z"/><path class="cls-1" d="M464.53,653.37l-2.25-8.53a5.37,5.37,0,0,0-1.12-.27,1.89,1.89,0,0,1,.11-.67l1.78,0c.46,0,1.33,0,1.74,0a1.8,1.8,0,0,1,.08.67l-1.23.27,1.58,6.15.07,1.19h0l2.16-8.15a3.33,3.33,0,0,1,1.15-.18l1.81,7.14.08,1.19h0l1.86-7.34-1.32-.27a1.89,1.89,0,0,1,.11-.67c.6,0,1.15,0,1.61,0s1.15,0,1.55,0a1.78,1.78,0,0,1,.08.67,3.92,3.92,0,0,1-1,.27l-2.21,8.33a4.41,4.41,0,0,1-1.4.2l-1.67-6.6-.05-1.42h0l-2,7.82A4.87,4.87,0,0,1,464.53,653.37Z"/><path class="cls-1" d="M473.59,653.31a2,2,0,0,1-.1-.63,4.66,4.66,0,0,0,1-.2l2.37-6a4,4,0,0,1,1.16-.15l2.48,6.18a4,4,0,0,1,.87.2,1.59,1.59,0,0,1-.07.63c-.35,0-1.06,0-1.51,0l-1.58,0a2,2,0,0,1-.1-.63l1.09-.18-.56-1.34c-.62,0-1.28-.06-1.84-.06h-.84l-.55,1.4,1,.18a2.37,2.37,0,0,1-.07.63c-.38,0-1.05,0-1.39,0Zm2.61-3h2.07l-.86-2.06-.06-.9h0Z"/><path class="cls-1" d="M482,653.31a2,2,0,0,1-.1-.63,5.18,5.18,0,0,0,1-.2,2.23,2.23,0,0,0,.07-.62v-3.28a12,12,0,0,0-.07-1.42,5,5,0,0,0-1-.2,2,2,0,0,1,.1-.63c.53,0,1.05,0,1.65,0s1.3,0,1.7,0a1.57,1.57,0,0,1,.08.63,5.88,5.88,0,0,1-1.2.2,13,13,0,0,0-.06,1.42v3.89h2.61a10.29,10.29,0,0,0,.42-1.46,1.67,1.67,0,0,1,.74.05,16,16,0,0,1-.11,2.12l-.11.11c-.74,0-1.93,0-2.76,0h-1.39C483,653.29,482.49,653.31,482,653.31Z"/><path class="cls-1" d="M489.45,653.31a1.64,1.64,0,0,1-.1-.63,8.37,8.37,0,0,0,1.27-.2,3,3,0,0,0,.06-.63v-4.68h-1.81a8.23,8.23,0,0,0-.18,1.32,1.38,1.38,0,0,1-.76,0,12.67,12.67,0,0,1-.11-2l.11-.11c.71,0,1.93,0,2.76,0h1.15c.83,0,2,0,2.76,0l.11.11a11.33,11.33,0,0,1-.13,2,1.33,1.33,0,0,1-.74,0,8.23,8.23,0,0,0-.18-1.32h-1.79v4.45a8.5,8.5,0,0,0,0,.85,7,7,0,0,1,1.21.2,1.59,1.59,0,0,1-.07.63c-.43,0-1.26,0-1.79,0Z"/><path class="cls-1" d="M495.84,653.31a2,2,0,0,1-.1-.63,5.19,5.19,0,0,0,1-.2,2.27,2.27,0,0,0,.07-.62v-3.28a12.28,12.28,0,0,0-.07-1.42,5,5,0,0,0-1-.2,2,2,0,0,1,.1-.63c.5,0,1,0,1.58,0h1.25c.81,0,2,0,2.75,0l.11.11a12.61,12.61,0,0,1-.11,1.85,1.38,1.38,0,0,1-.76,0,6.17,6.17,0,0,0-.18-1.13H498v2.17l2.3,0,.11.11a3.49,3.49,0,0,1-.11.71l-2.3,0v2.38h2.61a10.35,10.35,0,0,0,.42-1.27,1.68,1.68,0,0,1,.74.06,13.86,13.86,0,0,1-.12,1.93l-.11.11c-.71,0-1.92,0-2.75,0h-1.37C496.83,653.29,496.34,653.31,495.84,653.31Z"/><path class="cls-1" d="M503.19,653.31a2,2,0,0,1-.1-.63,5.19,5.19,0,0,0,1-.2,3.45,3.45,0,0,0,.07-.85v-3a12.47,12.47,0,0,0-.07-1.42,5,5,0,0,0-1-.2,2,2,0,0,1,.1-.63c.5,0,1,0,1.57,0,.8,0,1.61-.06,2.19-.06,1.61,0,2.21.87,2.21,1.72a2.5,2.5,0,0,1-1.49,2.09l1.29,2.35a4.93,4.93,0,0,1,1,.2,2.24,2.24,0,0,1-.07.63H508l-1.6-2.89a9.45,9.45,0,0,1-1.05-.07v1.29a5.58,5.58,0,0,0,.06.85,4.66,4.66,0,0,1,.94.2,1.91,1.91,0,0,1-.07.63c-.36,0-1.08,0-1.53,0S503.69,653.31,503.19,653.31Zm4.22-4a1.18,1.18,0,0,0,.49-1,1.2,1.2,0,0,0-1.3-1.21l-1.23,0v2.34q.44,0,.88,0A3.31,3.31,0,0,0,507.4,649.35Z"/><path class="cls-1" d="M513.73,653.45a6.39,6.39,0,0,1-2.62-.48,8,8,0,0,1,.28-1.88,1.17,1.17,0,0,1,.76.06,7,7,0,0,0,.15,1.23,4.74,4.74,0,0,0,1.47.2,2.41,2.41,0,0,0,1.06-.24,1.06,1.06,0,0,0,.37-.91c0-.5-.55-.84-1.18-1.07l-.85-.31c-.84-.31-1.89-.77-1.89-1.84,0-1.47,1.46-2,2.69-2a7.44,7.44,0,0,1,2.3.38,6.22,6.22,0,0,1-.24,1.65,1.06,1.06,0,0,1-.73,0,7.76,7.76,0,0,0-.17-1,5,5,0,0,0-1.28-.14,3.13,3.13,0,0,0-1,.15.77.77,0,0,0-.31.67c0,.56.64.87,1.19,1.06l1,.35c.87.31,1.76.81,1.76,1.79A2.43,2.43,0,0,1,513.73,653.45Z"/><path class="cls-1" d="M519.09,651.59a1,1,0,0,1,1,1.05,3.6,3.6,0,0,1-2,2.72.48.48,0,0,1-.35-.42,2.8,2.8,0,0,0,.91-1.68.72.72,0,0,0-.55-.71A1,1,0,0,1,519.09,651.59Z"/><path class="cls-1" d="M371.53,670.17l-2.26-8.53a5.41,5.41,0,0,0-1.12-.27,1.89,1.89,0,0,1,.11-.67l1.78,0c.46,0,1.33,0,1.74,0a1.78,1.78,0,0,1,.08.67l-1.23.27,1.58,6.15.07,1.19h0l2.16-8.15a3.35,3.35,0,0,1,1.15-.18l1.81,7.14.08,1.19h0l1.86-7.34-1.32-.27a1.89,1.89,0,0,1,.11-.67c.6,0,1.15,0,1.61,0s1.15,0,1.55,0a1.76,1.76,0,0,1,.08.67,3.88,3.88,0,0,1-1,.27L378.17,670a4.41,4.41,0,0,1-1.4.2l-1.67-6.6-.06-1.42h0L373,670A4.87,4.87,0,0,1,371.53,670.17Z"/><path class="cls-1" d="M386.7,670.11a2,2,0,0,1-.1-.63,5.19,5.19,0,0,0,1-.2,2.3,2.3,0,0,0,.07-.62v-1.74c-.78,0-1.58-.06-2.34-.06H384v1.57a5.53,5.53,0,0,0,.06.84,4.68,4.68,0,0,1,.94.2,2.37,2.37,0,0,1-.07.63c-.37,0-1.08,0-1.53,0s-1.06,0-1.57,0a2,2,0,0,1-.1-.63,5.18,5.18,0,0,0,1-.2,2.23,2.23,0,0,0,.07-.62v-3.28a12.24,12.24,0,0,0-.07-1.41,5.1,5.1,0,0,0-1-.2,2,2,0,0,1,.1-.63c.5,0,1,0,1.57,0s1.16,0,1.53,0a2.3,2.3,0,0,1,.07.63,4.68,4.68,0,0,1-.94.2,13.06,13.06,0,0,0-.06,1.41v.7h3.67v-.7a12.51,12.51,0,0,0-.07-1.41,5.12,5.12,0,0,0-1-.2,2,2,0,0,1,.1-.63c.5,0,1,0,1.57,0s1.16,0,1.53,0a2.3,2.3,0,0,1,.07.63,4.63,4.63,0,0,1-.94.2,12.53,12.53,0,0,0-.06,1.41v3.05a5.28,5.28,0,0,0,.06.84,4.63,4.63,0,0,1,.94.2,2.37,2.37,0,0,1-.07.63c-.36,0-1.08,0-1.53,0S387.2,670.11,386.7,670.11Z"/><path class="cls-1" d="M391.23,670.11a2,2,0,0,1-.1-.63,5.32,5.32,0,0,0,1-.2,3,3,0,0,0,.06-.62v-3.28a12.47,12.47,0,0,0-.07-1.41,5.11,5.11,0,0,0-1-.2,2,2,0,0,1,.1-.63c.5,0,1,0,1.57,0s1.16,0,1.53,0a2.3,2.3,0,0,1,.07.63,4.66,4.66,0,0,1-.94.2,12.77,12.77,0,0,0-.06,1.41v3.05a5.4,5.4,0,0,0,.06.84,4.66,4.66,0,0,1,.94.2,2.37,2.37,0,0,1-.07.63c-.36,0-1.08,0-1.53,0S391.73,670.11,391.23,670.11Z"/><path class="cls-1" d="M397.11,670.11a1.64,1.64,0,0,1-.1-.63,8.38,8.38,0,0,0,1.28-.2,3.09,3.09,0,0,0,.06-.63V664h-1.81a8.34,8.34,0,0,0-.18,1.32,1.38,1.38,0,0,1-.76,0,12.67,12.67,0,0,1-.11-2l.11-.11c.71,0,1.93,0,2.76,0h1.15c.83,0,2,0,2.76,0l.11.11a11.33,11.33,0,0,1-.13,2,1.33,1.33,0,0,1-.74,0,8.23,8.23,0,0,0-.18-1.32h-1.79v4.45a8.22,8.22,0,0,0,0,.85,7,7,0,0,1,1.2.2,1.59,1.59,0,0,1-.07.63c-.43,0-1.26,0-1.79,0Z"/><path class="cls-1" d="M407.44,670.16,405.64,665l-.14-1h0l-.56,5.29,1,.2a1.59,1.59,0,0,1-.07.63c-.36,0-1,0-1.39,0l-1.34,0a1.94,1.94,0,0,1-.08-.63,5.9,5.9,0,0,0,1-.2l.56-5.31a6.18,6.18,0,0,0-1-.2,2,2,0,0,1,.08-.63l1.44,0c.41,0,.88,0,1.26,0l1.65,4.52,0,1h0l1.88-5.55c.39,0,.83,0,1.22,0s1.16,0,1.53,0a1.82,1.82,0,0,1,.07.63,5.56,5.56,0,0,1-1,.2l.55,5.31a4.68,4.68,0,0,1,1,.2,1.89,1.89,0,0,1-.07.63c-.36,0-1.11,0-1.54,0l-1.55,0a2,2,0,0,1-.1-.63l1-.2-.43-4.27v-1h0l-2,6A4.88,4.88,0,0,1,407.44,670.16Z"/><path class="cls-1" d="M414.23,670.11a2,2,0,0,1-.1-.63,4.66,4.66,0,0,0,1-.2l2.37-6a4,4,0,0,1,1.16-.15l2.48,6.18a4,4,0,0,1,.87.2,1.57,1.57,0,0,1-.07.63c-.35,0-1.06,0-1.51,0l-1.58,0a2,2,0,0,1-.1-.63l1.09-.18-.56-1.34c-.62,0-1.28-.06-1.83-.06h-.84l-.55,1.4,1,.18a2.33,2.33,0,0,1-.07.63c-.38,0-1.05,0-1.39,0Zm2.61-3h2.07l-.85-2.06-.06-.9h0Z"/><path class="cls-1" d="M428.33,670.16l-3.46-5-.31-1h0v4.29a8.51,8.51,0,0,0,0,.85,4.6,4.6,0,0,1,1,.2,2.33,2.33,0,0,1-.07.63c-.38,0-1.05,0-1.4,0l-1.43,0a2,2,0,0,1-.1-.63,5.19,5.19,0,0,0,1-.2,2.27,2.27,0,0,0,.07-.62v-3.28a12.28,12.28,0,0,0-.07-1.41,5.11,5.11,0,0,0-1-.2,2,2,0,0,1,.1-.63l1.46,0a8.68,8.68,0,0,1,1.08,0l3.21,4.68.31,1h0v-3.53a12.94,12.94,0,0,0-.06-1.41,5.1,5.1,0,0,0-1-.2,2,2,0,0,1,.1-.63l1.44,0c.34,0,1,0,1.37,0a2.3,2.3,0,0,1,.07.63,4.58,4.58,0,0,1-1,.2c0,.38,0,.81,0,1.41V670A6.29,6.29,0,0,1,428.33,670.16Z"/><path class="cls-1" d="M439,670.31c-2.89,0-4.29-2.12-4.29-4.73,0-2.44,1.58-5.07,4.52-5.07a7.66,7.66,0,0,1,2.56.38,7.62,7.62,0,0,1-.32,2.31,1.06,1.06,0,0,1-.71-.06,9.29,9.29,0,0,0-.21-1.54,12.38,12.38,0,0,0-1.57-.08,4,4,0,0,0-1.86.48,4.15,4.15,0,0,0-1.13,3c0,2.3.9,4.33,3.39,4.33a7.58,7.58,0,0,0,1.36-.13,13.05,13.05,0,0,0,.2-1.71,1.22,1.22,0,0,1,.74-.06,13.46,13.46,0,0,1,.21,2.42A9.4,9.4,0,0,1,439,670.31Z"/><path class="cls-1" d="M446.73,670.3a3.28,3.28,0,0,1-3.43-3.54,3.74,3.74,0,0,1,3.64-3.78,3.29,3.29,0,0,1,3.45,3.54A3.75,3.75,0,0,1,446.73,670.3Zm.32-.92a2.51,2.51,0,0,0,1.22-.34,2.81,2.81,0,0,0,.87-2.1c0-1.6-.73-3-2.52-3a2.5,2.5,0,0,0-1.21.34,2.75,2.75,0,0,0-.87,2.09C444.54,667.93,445.27,669.37,447,669.37Z"/><path class="cls-1" d="M451.84,670.11a2,2,0,0,1-.1-.63,5.18,5.18,0,0,0,1-.2,2.23,2.23,0,0,0,.07-.62v-3.28a12.24,12.24,0,0,0-.07-1.41,5.1,5.1,0,0,0-1-.2,2,2,0,0,1,.1-.63l1.65,0c.5,0,1.3,0,1.7,0a1.56,1.56,0,0,1,.08.63,5.88,5.88,0,0,1-1.21.2,13.23,13.23,0,0,0-.06,1.41v3.89h2.61a10.18,10.18,0,0,0,.42-1.46,1.67,1.67,0,0,1,.74.06,16,16,0,0,1-.11,2.12l-.11.11c-.74,0-1.93,0-2.76,0H453.4C452.83,670.09,452.34,670.11,451.84,670.11Z"/><path class="cls-1" d="M458.86,670.11a2,2,0,0,1-.1-.63,5.18,5.18,0,0,0,1-.2,2.23,2.23,0,0,0,.07-.62v-3.28a12,12,0,0,0-.07-1.41,5.1,5.1,0,0,0-1-.2,2,2,0,0,1,.1-.63l1.65,0c.5,0,1.3,0,1.7,0a1.56,1.56,0,0,1,.08.63,5.88,5.88,0,0,1-1.2.2,13,13,0,0,0-.06,1.41v3.89h2.61a10.31,10.31,0,0,0,.42-1.46,1.67,1.67,0,0,1,.74.06,16,16,0,0,1-.11,2.12l-.11.11c-.74,0-1.93,0-2.76,0h-1.39C459.86,670.09,459.37,670.11,458.86,670.11Z"/><path class="cls-1" d="M465.89,670.11a2,2,0,0,1-.1-.63,5.19,5.19,0,0,0,1-.2,2.27,2.27,0,0,0,.07-.62v-3.28a12.28,12.28,0,0,0-.07-1.41,5.11,5.11,0,0,0-1-.2,2,2,0,0,1,.1-.63c.5,0,1,0,1.58,0h1.25c.81,0,2,0,2.75,0l.11.11a12.63,12.63,0,0,1-.11,1.85,1.4,1.4,0,0,1-.76,0,6.15,6.15,0,0,0-.18-1.13h-2.46v2.17l2.3,0,.11.11a3.47,3.47,0,0,1-.11.71l-2.3,0v2.38h2.61a10.35,10.35,0,0,0,.42-1.27,1.67,1.67,0,0,1,.74.06,13.86,13.86,0,0,1-.12,1.93l-.11.11c-.71,0-1.92,0-2.75,0h-1.37C466.89,670.09,466.4,670.11,465.89,670.11Z"/><path class="cls-1" d="M476.7,670.25a3.24,3.24,0,0,1-3.4-3.5,3.73,3.73,0,0,1,3.94-3.74,7,7,0,0,1,2.21.29,5.73,5.73,0,0,1-.27,1.83,1.42,1.42,0,0,1-.74-.06,5,5,0,0,0-.17-1.13,11.55,11.55,0,0,0-1.33-.07,3.5,3.5,0,0,0-1.48.31,2.66,2.66,0,0,0-.91,2.13c0,1.67.74,3.07,2.69,3.07a7.22,7.22,0,0,0,1-.08v-.24c0-.6,0-1-.06-1.43a6.94,6.94,0,0,0-1.11-.18,1.65,1.65,0,0,1,.1-.63l1.49,0c.45,0,1.18,0,1.51,0a2.33,2.33,0,0,1,.07.63,3.47,3.47,0,0,1-.81.2c0,.32,0,.94,0,1.6v.43A7.87,7.87,0,0,1,476.7,670.25Z"/><path class="cls-1" d="M481.56,670.11a2,2,0,0,1-.1-.63,5.19,5.19,0,0,0,1-.2,2.27,2.27,0,0,0,.07-.62v-3.28a12.28,12.28,0,0,0-.07-1.41,5.11,5.11,0,0,0-1-.2,2,2,0,0,1,.1-.63c.5,0,1,0,1.58,0h1.25c.81,0,2,0,2.75,0l.11.11a12.63,12.63,0,0,1-.11,1.85,1.4,1.4,0,0,1-.76,0,6.15,6.15,0,0,0-.18-1.13h-2.46v2.17l2.3,0,.11.11a3.47,3.47,0,0,1-.11.71l-2.3,0v2.38h2.61a10.35,10.35,0,0,0,.42-1.27,1.67,1.67,0,0,1,.74.06,13.86,13.86,0,0,1-.12,1.93l-.11.11c-.71,0-1.92,0-2.75,0h-1.37C482.55,670.09,482.06,670.11,481.56,670.11Z"/><path class="cls-1" d="M490.07,668.39a1,1,0,0,1,1,1.05,3.6,3.6,0,0,1-2,2.72.48.48,0,0,1-.35-.42,2.8,2.8,0,0,0,.91-1.68.72.72,0,0,0-.55-.71A1,1,0,0,1,490.07,668.39Z"/><path class="cls-1" d="M495.84,670.09a1.84,1.84,0,0,1-.31-1c1.65-1,3.66-2.54,3.66-3.71a1.48,1.48,0,0,0-1.61-1.47,2.73,2.73,0,0,0-.81.13,5.79,5.79,0,0,0-.11,1.32,1.17,1.17,0,0,1-.79.1,4.7,4.7,0,0,1-.35-1.7A5,5,0,0,1,498,663c1.48,0,2.4.84,2.4,2,0,1.57-1.37,2.77-2.82,3.74l-.84.56h3.14a7.62,7.62,0,0,0,.5-1.48,1,1,0,0,1,.66.06,12.41,12.41,0,0,1-.11,2.17l-.11.11c-.87,0-2.4,0-3.43,0Z"/><path class="cls-1" d="M502.28,666.51a3.35,3.35,0,0,1,3.33-3.54,3.63,3.63,0,0,1,3.52,3.78,3.36,3.36,0,0,1-3.33,3.54A3.63,3.63,0,0,1,502.28,666.51Zm5.63-.18a3.2,3.2,0,0,0-.8-2.07,1.94,1.94,0,0,0-1.19-.35c-1.79,0-2.42,1.46-2.42,3a3.21,3.21,0,0,0,.81,2.07,1.94,1.94,0,0,0,1.19.35C507.29,669.36,507.91,667.9,507.91,666.33Z"/><path class="cls-1" d="M513,668.14c0,.39,0,.73,0,1.08a6.63,6.63,0,0,1,1.39.25,1.7,1.7,0,0,1-.11.64l-1.9,0-2.06,0a1.6,1.6,0,0,1-.13-.64,8.74,8.74,0,0,0,1.54-.27,4.71,4.71,0,0,0,.06-.78v-4.13H510.2a1.22,1.22,0,0,1-.13-.57,11.59,11.59,0,0,1,2.86-.7l.11.11c0,1.4-.06,2.49-.06,4Z"/><path class="cls-1" d="M516,672.24l0-.18,3.84-8h-3.68a14.53,14.53,0,0,0-.2,1.81,1.49,1.49,0,0,1-.79,0,23.05,23.05,0,0,1-.13-2.62l.11-.11c.59,0,1.63,0,2.58,0h2.83a1.26,1.26,0,0,1,.34.81,66.73,66.73,0,0,0-3.63,8.7A1.78,1.78,0,0,1,516,672.24Z"/></svg>